<svg xmlns="http://www.w3.org/2000/svg" width="13.684" height="13" viewBox="0 0 13.684 13">
  <path id="apply-icon" d="M14.316,4.737H12.824a2.048,2.048,0,0,0-3.64-1.813l-.342.458L8.5,2.917a2.048,2.048,0,0,0-3.64,1.82H3.368A1.358,1.358,0,0,0,2.007,6.105L2,13.632A1.364,1.364,0,0,0,3.368,15H14.316a1.364,1.364,0,0,0,1.368-1.368V6.105A1.364,1.364,0,0,0,14.316,4.737ZM10.895,3.368a.684.684,0,1,1-.684.684A.686.686,0,0,1,10.895,3.368Zm-4.105,0a.684.684,0,1,1-.684.684A.686.686,0,0,1,6.789,3.368Zm7.526,10.263H3.368V12.263H14.316Zm0-3.421H3.368V6.105H6.844L5.421,8.042l1.108.8L8.158,6.625l.684-.931.684.931,1.628,2.217,1.108-.8L10.84,6.105h3.476Z" transform="translate(-2 -2)" fill="#fff"/>
</svg>
