<svg xmlns="http://www.w3.org/2000/svg" width="30.614" height="30.591" viewBox="0 0 30.614 30.591">
  <path id="call-c5" d="M23.753,30c-3.448,0-8.464-1.813-15.2-8.55C.081,12.98-.608,7.23.307,3.9A3.583,3.583,0,0,1,1.94,1.778L4.48.253A1.762,1.762,0,0,1,6.856.788l4.05,6.072a1.773,1.773,0,0,1-.386,2.373L8.248,11a.757.757,0,0,0-.2.973l.184.337a20.417,20.417,0,0,0,4.163,5.3,20.324,20.324,0,0,0,5.3,4.162l.337.185a.755.755,0,0,0,.969-.2l1.769-2.274a1.772,1.772,0,0,1,2.373-.386l6.072,4.05a1.763,1.763,0,0,1,.535,2.378L28.222,28.06A3.58,3.58,0,0,1,26.1,29.694,8.888,8.888,0,0,1,23.783,30ZM4.994,1.112,2.455,2.635A2.59,2.59,0,0,0,1.272,4.162c-.844,3.076-.145,8.449,7.987,16.581s13.505,8.832,16.582,7.988a2.583,2.583,0,0,0,1.525-1.183l1.524-2.539a.765.765,0,0,0-.232-1.031l-6.072-4.05a.77.77,0,0,0-1.03.167l-1.768,2.273a1.75,1.75,0,0,1-2.246.463l-.328-.181a21.236,21.236,0,0,1-5.53-4.333,21.221,21.221,0,0,1-4.333-5.53l-.18-.328a1.75,1.75,0,0,1,.464-2.246L9.9,8.446a.768.768,0,0,0,.167-1.03L8.225,4.647l-2.2-3.3a.764.764,0,0,0-1.031-.231ZM25.5,13.5A8.51,8.51,0,0,0,17,5a.5.5,0,0,1,0-1,9.51,9.51,0,0,1,9.5,9.5.5.5,0,0,1-1,0Zm-3,0A5.507,5.507,0,0,0,17,8a.5.5,0,0,1,0-1,6.507,6.507,0,0,1,6.5,6.5.5.5,0,0,1-1,0Zm-3,0A2.5,2.5,0,0,0,17,11a.5.5,0,0,1,0-1,3.5,3.5,0,0,1,3.5,3.5.5.5,0,0,1-1,0Z" transform="translate(0.271 0.341)" fill="#f92" stroke="#f92" stroke-width="0.5"/>
</svg>
