<svg xmlns="http://www.w3.org/2000/svg" width="16.3" height="16.3" viewBox="0 0 16.3 16.3">
  <g id="call" transform="translate(0.15 0.15)">
    <g id="Group_7797" data-name="Group 7797">
      <path id="Path_21429" data-name="Path 21429" d="M8,0a8,8,0,1,0,4.886,14.333,1.349,1.349,0,0,0,.294-1.685,1.289,1.289,0,0,0-.711-.617l.134-.15a1,1,0,0,0-.241-1.528L10.6,9.323a1,1,0,0,0-1.252.2l-.391.439a.321.321,0,0,1-.273.111.333.333,0,0,1-.254-.149L6.286,6.685A.333.333,0,0,1,6.424,6.2l.614-.285A1,1,0,0,0,7.59,4.772L7.112,2.789a1,1,0,0,0-1.393-.673l-.548.254A2.993,2.993,0,0,0,3.535,4.319l-.1.376a3,3,0,0,0,.177,2.035L4.1,7.792a14.289,14.289,0,0,0,2.932,4.17l.407.4a3.35,3.35,0,0,0,2.252.968l.111,0a3.342,3.342,0,0,0,2.02-.679.3.3,0,0,0,.034,0,.616.616,0,0,1,.735.313.69.69,0,0,1-.131.853A7.264,7.264,0,0,1,8,15.333,7.333,7.333,0,1,1,15.333,8,.333.333,0,1,0,16,8,8.009,8.009,0,0,0,8,0Zm4.107,11.439-.29.325a2.693,2.693,0,0,1-3.9.125l-.407-.4a13.623,13.623,0,0,1-2.8-3.976L4.217,6.449a2.339,2.339,0,0,1-.138-1.583l.1-.376A2.325,2.325,0,0,1,5.453,2.975L6,2.721a.339.339,0,0,1,.286,0,.334.334,0,0,1,.179.222l.478,1.983a.334.334,0,0,1-.184.381l-.614.285a1,1,0,0,0-.413,1.46l2.145,3.238a1,1,0,0,0,1.581.112l.391-.439a.335.335,0,0,1,.417-.066l1.76,1.031a.334.334,0,0,1,.08.51Z" fill="#fff" stroke="#fff" stroke-width="0.3"/>
    </g>
  </g>
</svg>
