<svg xmlns="http://www.w3.org/2000/svg" width="16" height="16" viewBox="0 0 16 16">
  <path id="cart-white" d="M5.8,14.8a1.6,1.6,0,1,0,1.6,1.6A1.6,1.6,0,0,0,5.8,14.8ZM1,2V3.6H2.6L5.48,9.672,4.4,11.632a1.547,1.547,0,0,0-.2.768A1.6,1.6,0,0,0,5.8,14h9.6V12.4H6.136a.2.2,0,0,1-.2-.2l.024-.1.72-1.3h5.96a1.592,1.592,0,0,0,1.4-.824L16.9,4.784A.782.782,0,0,0,17,4.4a.8.8,0,0,0-.8-.8H4.368L3.616,2H1ZM13.8,14.8a1.6,1.6,0,1,0,1.6,1.6A1.6,1.6,0,0,0,13.8,14.8Z" transform="translate(-1 -2)" fill="#fff"/>
</svg>
