<svg xmlns="http://www.w3.org/2000/svg" width="13.714" height="16" viewBox="0 0 13.714 16">
  <path id="checkout" d="M15.19,4.81H13.667a3.81,3.81,0,0,0-7.619,0H4.524A1.522,1.522,0,0,0,3.008,6.333L3,15.476A1.528,1.528,0,0,0,4.524,17H15.19a1.528,1.528,0,0,0,1.524-1.524V6.333A1.528,1.528,0,0,0,15.19,4.81ZM9.857,2.524A2.283,2.283,0,0,1,12.143,4.81H7.571A2.283,2.283,0,0,1,9.857,2.524Zm0,7.619a3.811,3.811,0,0,1-3.81-3.81H7.571a2.286,2.286,0,1,0,4.571,0h1.524A3.811,3.811,0,0,1,9.857,10.143Z" transform="translate(-3 -1)" fill="#fff"/>
</svg>
