<svg xmlns="http://www.w3.org/2000/svg" width="14.753" height="18" viewBox="0 0 14.753 18">
  <path id="Union_96" data-name="Union 96" d="M1.936,15.571l1.383-1.38,2.425,2.428L4.361,18ZM.124,13.762,4.36,9.538,5.738,10.92,1.5,15.145Zm4.6.981-.978-.978.97-.97h5.863A2.227,2.227,0,0,0,12.8,10.569V9.757h1.948v.811a4.179,4.179,0,0,1-4.171,4.175Zm4.289-7.66,4.23-4.23,1.38,1.38L10.4,8.465ZM0,8.24V7.428A4.179,4.179,0,0,1,4.171,3.253h5.855L11,4.231l-.97.97H4.171A2.227,2.227,0,0,0,1.947,7.428V8.24Zm9.011-6.86L10.392,0l2.425,2.425L11.436,3.8Z" transform="translate(0 0.001)" fill="#fff"/>
</svg>
