<svg xmlns="http://www.w3.org/2000/svg" width="26.999" height="50" viewBox="0 0 26.999 50">
  <path id="contact-icon" d="M827.971,3677a4.006,4.006,0,0,1-3.97-4.032v-41.936a4.006,4.006,0,0,1,3.97-4.032h19.058a4.006,4.006,0,0,1,3.97,4.032v41.936a4.006,4.006,0,0,1-3.97,4.032Zm-2.382-45.968v41.936a2.4,2.4,0,0,0,2.382,2.419h19.058a2.4,2.4,0,0,0,2.382-2.419v-41.936a2.4,2.4,0,0,0-2.382-2.419H844.5l-.666,3.384a.8.8,0,0,1-.779.648H831.941a.8.8,0,0,1-.779-.648l-.666-3.384h-2.525A2.4,2.4,0,0,0,825.589,3631.032Zm7,0h9.815l.476-2.419H832.116Zm2.525,42.742a.807.807,0,0,1,0-1.613h.794a.807.807,0,0,1,0,1.613Zm-7.147,0a.807.807,0,0,1,0-1.613h4.765a.807.807,0,0,1,0,1.613Z" transform="translate(-824 -3627)" fill="#ff2c2c"/>
</svg>
