<svg xmlns="http://www.w3.org/2000/svg" width="32.501" height="30.626" viewBox="0 0 32.501 30.626">
  <path id="email-c5" d="M0,29.523V18.185a.473.473,0,0,1,.469-.477.473.473,0,0,1,.469.477V28.55l11.787-9.273L.938,12.568v3.389a.473.473,0,0,1-.469.477A.473.473,0,0,1,0,15.957v-4.2a.484.484,0,0,1,.184-.379L13.5.9a4.155,4.155,0,0,1,5.175.016L31.818,11.377a.5.5,0,0,1,.18.433V29.523A.478.478,0,0,1,31.53,30H.462A.477.477,0,0,1,0,29.523Zm14.074-10.1L1.843,29.045H30.169l-4.292-3.418a.484.484,0,0,1-.081-.67.462.462,0,0,1,.658-.082l4.608,3.668V12.634l-6.876,3.947a.464.464,0,0,1-.638-.182.483.483,0,0,1,.178-.651l7.009-4.024L18.1,1.665a3.23,3.23,0,0,0-4.025-.012L1.318,11.689l12.215,6.953a4.152,4.152,0,0,1,5.119.02l3.223-1.85a.465.465,0,0,1,.639.182.483.483,0,0,1-.178.651L19.452,19.3l5.326,4.241a.484.484,0,0,1,.081.67.463.463,0,0,1-.658.083l-5.877-4.68-.226-.179a3.23,3.23,0,0,0-4.025-.013ZM16.328,16a5.422,5.422,0,0,1-3.809-1.632,5.661,5.661,0,0,1,.037-7.989A5.418,5.418,0,0,1,16.648,4.8a5.571,5.571,0,0,1,5.241,5.456,5.7,5.7,0,0,1-.3,1.987,1.72,1.72,0,0,1-3.253.034,2.647,2.647,0,0,1-1.945.855,2.732,2.732,0,0,1,0-5.463,2.642,2.642,0,0,1,1.833.743V8.1a.424.424,0,1,1,.847,0v3.555a.894.894,0,0,0,.884.9.881.881,0,0,0,.834-.6,4.829,4.829,0,0,0,.255-1.682,4.713,4.713,0,0,0-4.437-4.615A4.579,4.579,0,0,0,13.146,7a4.759,4.759,0,0,0,3.191,8.14,4.543,4.543,0,0,0,1.647-.284.42.42,0,0,1,.542.257.433.433,0,0,1-.253.553A5.394,5.394,0,0,1,16.388,16ZM14.555,10.4A1.834,1.834,0,1,0,16.39,8.528,1.854,1.854,0,0,0,14.555,10.4Z" transform="translate(0.25 0.376)" fill="#f92" stroke="#f92" stroke-width="0.5"/>
</svg>
