<svg xmlns="http://www.w3.org/2000/svg" width="59.999" height="60" viewBox="0 0 59.999 60">
  <path id="f1" d="M-2382.12,3687a8.678,8.678,0,0,1-4.469-1.238l-2.776-1.666H-2392v-15.484h2.635l2.775-1.665a8.686,8.686,0,0,1,4.47-1.238h8.507a1.937,1.937,0,0,1,1.935,1.935,3.842,3.842,0,0,1-.537,1.936h2.415a9.5,9.5,0,0,1-1.878-5.652v-.155a2.907,2.907,0,0,1,2.9-2.9,2.907,2.907,0,0,1,2.9,2.9v.155a3.721,3.721,0,0,0,3.717,3.716h.309a3.72,3.72,0,0,0,3.716-3.716,3.733,3.733,0,0,0-2.7-3.575l-3.948-1.128a9.563,9.563,0,0,1-6.906-9.156,9.573,9.573,0,0,1,6.774-9.116v-3.311a2.907,2.907,0,0,1,2.9-2.9h3.081a2.872,2.872,0,0,1-.178-.968,2.906,2.906,0,0,1,2.9-2.9h4.409a3.84,3.84,0,0,1-.537-1.936,1.937,1.937,0,0,1,1.935-1.935h8.507a8.675,8.675,0,0,1,4.469,1.238l2.776,1.664H-2332v15.484h-2.635l-2.776,1.666a8.684,8.684,0,0,1-4.47,1.238H-2352.5a9.362,9.362,0,0,1,.177,1.78v.155a2.906,2.906,0,0,1-2.9,2.9,2.906,2.906,0,0,1-2.9-2.9v-.155a3.72,3.72,0,0,0-3.717-3.716h-.308a3.72,3.72,0,0,0-3.717,3.716,3.733,3.733,0,0,0,2.7,3.575l3.948,1.128a9.56,9.56,0,0,1,6.906,9.156,9.572,9.572,0,0,1-6.774,9.115v3.311a2.907,2.907,0,0,1-2.9,2.9h-3.082a2.867,2.867,0,0,1,.178.967,2.9,2.9,0,0,1-2.148,2.791,2.894,2.894,0,0,1,.213,1.08,2.907,2.907,0,0,1-2.9,2.9Zm-7.944-4.839h1.236l3.235,1.942a6.757,6.757,0,0,0,3.474.962h12.379a.97.97,0,0,0,.968-.969.969.969,0,0,0-.968-.968h-9.678v-1.935h11.614a.969.969,0,0,0,.968-.968.969.969,0,0,0-.968-.967h-11.614v-1.936h14.695a2.876,2.876,0,0,1-.178-.969v-.968h-14.516v-1.935h14.516v-.408a9.466,9.466,0,0,1-2.976-1.527h-11.138l-.92.919a6.73,6.73,0,0,1-4.79,1.984h-1.467v-1.935h1.467a4.81,4.81,0,0,0,3.421-1.417l1.486-1.486h4.272a1.938,1.938,0,0,0,1.935-1.936h-8.507a6.757,6.757,0,0,0-3.474.962l-3.235,1.942h-1.236Zm20.323-18.386v.155a7.624,7.624,0,0,0,6.007,7.419l.766.163v4.843a.97.97,0,0,0,.969.969.97.97,0,0,0,.968-.969v-4.843l.766-.163a7.625,7.625,0,0,0,6.008-7.419,7.619,7.619,0,0,0-5.5-7.3l-3.948-1.128a5.676,5.676,0,0,1-4.1-5.435,5.658,5.658,0,0,1,5.652-5.652h.309a5.659,5.659,0,0,1,5.652,5.652v.155a.969.969,0,0,0,.968.968.97.97,0,0,0,.969-.968v-.155a7.624,7.624,0,0,0-6.008-7.419l-.766-.163v-4.844a.969.969,0,0,0-.968-.968.97.97,0,0,0-.969.968v4.844l-.766.163a7.624,7.624,0,0,0-6.007,7.419,7.619,7.619,0,0,0,5.5,7.3l3.948,1.128a5.675,5.675,0,0,1,4.1,5.435,5.658,5.658,0,0,1-5.652,5.652h-.308a5.658,5.658,0,0,1-5.652-5.652v-.155a.969.969,0,0,0-.968-.968A.969.969,0,0,0-2369.741,3663.774Zm16.654-17.419h11.208a6.757,6.757,0,0,0,3.474-.962l3.235-1.942h1.235v-11.612h-1.235l-3.235-1.941a6.757,6.757,0,0,0-3.474-.962h-8.507a1.938,1.938,0,0,0,1.935,1.936h4.272l1.485,1.485a4.81,4.81,0,0,0,3.422,1.417h1.467v1.935h-1.465a6.73,6.73,0,0,1-4.791-1.983l-.919-.919h-11.213a.969.969,0,0,0-.968.968.969.969,0,0,0,.968.968h11.614v1.935h-14.695a2.876,2.876,0,0,1,.178.968v.969h14.516v1.935H-2359.1v.406a9.483,9.483,0,0,1,2.976,1.529h11.54v1.935h-9.619A9.654,9.654,0,0,1-2353.088,3646.355Zm1.832,20.91.742-1.788,8.942,3.707-.741,1.788Zm.868-2.523v-1.935h9.677v1.935Zm-.873-4.456,8.943-3.707.741,1.788-8.942,3.706Zm-31.142-4.656,8.942-3.706.741,1.788-8.941,3.707Zm-.889-4.438v-1.935h9.677v1.935Zm.888-6.367.741-1.789,8.942,3.707-.741,1.789Z" transform="translate(2392 -3627)" fill="#202020"/>
</svg>
