<svg xmlns="http://www.w3.org/2000/svg" width="59.998" height="60" viewBox="0 0 59.998 60">
  <g id="f2" transform="translate(-2 -1.84)">
    <path id="Path_24601" data-name="Path 24601" d="M10,52a3,3,0,1,0,3,3A3,3,0,0,0,10,52Zm0,4a1,1,0,1,1,1-1A1,1,0,0,1,10,56Z" transform="translate(0 -0.16)" fill="#202020"/>
    <path id="Path_24602" data-name="Path 24602" d="M61.371,27.071l-4.6-1.841-1.841-4.6a1,1,0,0,0-1.858,0l-1.841,4.6-4.6,1.841a1,1,0,0,0,0,1.858l4.642,1.857L53.1,34.512a1,1,0,0,0,1.794,0l1.832-3.726,4.642-1.857a1,1,0,0,0,0-1.858Zm-5.742,2a1,1,0,0,0-.526.488L54,31.8l-1.1-2.244a1,1,0,0,0-.526-.488L49.692,28l2.679-1.071a1,1,0,0,0,.558-.557L54,23.692l1.071,2.68a1,1,0,0,0,.558.557L58.308,28Z" transform="translate(0 -0.064)" fill="#202020"/>
    <path id="Path_24603" data-name="Path 24603" d="M14.629,23.929l4.642,1.857L21.1,29.512a1,1,0,0,0,1.794,0l1.832-3.726,4.642-1.857a1,1,0,0,0,0-1.858l-4.6-1.841-1.841-4.6a1,1,0,0,0-1.858,0l-1.841,4.6-4.6,1.841a1,1,0,0,0,0,1.858Zm5.742-2a1,1,0,0,0,.558-.557L22,18.692l1.071,2.68a1,1,0,0,0,.558.557L26.308,23l-2.679,1.071a1,1,0,0,0-.526.488L22,26.8l-1.1-2.244a1,1,0,0,0-.526-.488L17.692,23Z" transform="translate(0 -0.047)" fill="#202020"/>
    <path id="Path_24604" data-name="Path 24604" d="M59.37,9.051l-4.6-1.835L52.93,2.628a1,1,0,0,0-1.86,0L49.23,7.216l-1.12.449A10.956,10.956,0,0,0,42.4,1.92a1.036,1.036,0,0,0-.95.08,1.01,1.01,0,0,0-.45.838v9.634l-3,2.244-3-2.244V2.837A1.01,1.01,0,0,0,34.55,2a1.033,1.033,0,0,0-.95-.08A10.957,10.957,0,0,0,30.96,20.4,2.909,2.909,0,0,1,32,22.654v4.279H29.66a5,5,0,0,0-3.54,1.456l-4.66,4.648a2.96,2.96,0,0,1-2.12.878H18V31.92a1,1,0,0,0-1-1H3a1,1,0,0,0-1,1V60.843a1,1,0,0,0,1,1H17a1,1,0,0,0,1-1V58.848h1.67a3.023,3.023,0,0,1,1.8.6l1.86,1.4a5.017,5.017,0,0,0,3,1H46a3.989,3.989,0,0,0,3.32-6.213,3.9,3.9,0,0,0,1.51-.928A3.969,3.969,0,0,0,52,51.867a3.913,3.913,0,0,0-.96-2.553,4.117,4.117,0,0,0,.79-.6,3.975,3.975,0,0,0-.79-6.243A3.974,3.974,0,0,0,48,35.909H44V22.654A2.909,2.909,0,0,1,45.04,20.4a10.874,10.874,0,0,0,3.92-7.769l.31.13,1.83,3.71a1,1,0,0,0,1.8,0l1.83-3.71,4.64-1.855a1,1,0,0,0,0-1.855ZM16,59.845H4V32.917H16ZM48,37.9a2,2,0,1,1,.12,3.989H40a1,1,0,1,0,0,1.995h9a2,2,0,1,1,0,4h-.01L40,47.877a1,1,0,1,0,0,1.995l8.1.01a2,2,0,1,1-.1,3.989h-.01L40,53.861a1,1,0,1,0,0,1.995l6.09.01A1.994,1.994,0,0,1,46,59.845H26.33a3.023,3.023,0,0,1-1.8-.6l-1.86-1.4a5.017,5.017,0,0,0-3-1H18V35.909h1.34a5,5,0,0,0,3.54-1.456l4.66-4.648a2.96,2.96,0,0,1,2.12-.878H32v5.984A3,3,0,0,0,35,37.9ZM43.76,18.865A4.9,4.9,0,0,0,42,22.654V35.909H39V25.936a1,1,0,0,0-2,0v9.973H35a1,1,0,0,1-1-1V22.654a4.9,4.9,0,0,0-1.76-3.79A8.953,8.953,0,0,1,33,4.513V12.97a1.01,1.01,0,0,0,.4.8l4,2.992a.992.992,0,0,0,1.2,0l4-2.992a1.01,1.01,0,0,0,.4-.8V4.513A8.959,8.959,0,0,1,46.26,8.4l-1.63.648a1,1,0,0,0,0,1.855l2.36.937c0,.05.01.09.01.13A8.921,8.921,0,0,1,43.76,18.865Zm9.87-7.819a1.014,1.014,0,0,0-.53.489L52,13.768l-1.1-2.234a1.014,1.014,0,0,0-.53-.489L47.69,9.978l.14-.05c0-.01,0-.01.01-.01s.01-.01.02-.01l2.51-1a.965.965,0,0,0,.56-.559L52,5.68l1.07,2.673a.965.965,0,0,0,.56.559l2.68,1.067Z" transform="translate(0 0)" fill="#202020"/>
  </g>
</svg>
