<svg xmlns="http://www.w3.org/2000/svg" width="60.001" height="60" viewBox="0 0 60.001 60">
  <path id="f3" d="M-2365.871,3687h-6.371a6.791,6.791,0,0,1-3.029-.716l-2.441-1.219H-2392V3669.58h14.223l2.012-1.341a6.872,6.872,0,0,1,1.135-.593h-2.854a4.845,4.845,0,0,1-4.839-4.839v-25.162a4.845,4.845,0,0,1,4.839-4.839h30.255a7.749,7.749,0,0,1,7.487-5.807,7.752,7.752,0,0,1,7.742,7.742,7.742,7.742,0,0,1-3.871,6.7v21.37a4.845,4.845,0,0,1-4.839,4.839h-7.224l-3.208,4.814a2.223,2.223,0,0,1-1.854.992,2.23,2.23,0,0,1-2.228-2.228v-3.578h-7.956l-.484,1.934h3.6a2.907,2.907,0,0,1,2.9,2.9,2.883,2.883,0,0,1-.754,1.936,2.885,2.885,0,0,1,.754,1.936,2.881,2.881,0,0,1-.754,1.935,2.888,2.888,0,0,1,.754,1.936,2.883,2.883,0,0,1-.754,1.936,2.884,2.884,0,0,1,.754,1.935,2.906,2.906,0,0,1-2.9,2.9Zm-.968-2.9a.969.969,0,0,0,.967.968h5.807a.969.969,0,0,0,.968-.968.969.969,0,0,0-.968-.968h-5.807A.969.969,0,0,0-2366.838,3684.1Zm-.968-23.225v1.621a6.767,6.767,0,0,1-4.631,6.427l-1.1.366a4.824,4.824,0,0,0-1.155.564l-1.825,1.217V3683.5l2.11,1.055a4.873,4.873,0,0,0,2.164.511h3.646a2.875,2.875,0,0,1-.178-.968,2.878,2.878,0,0,1,.754-1.935,2.887,2.887,0,0,1-.754-1.936,2.882,2.882,0,0,1,.754-1.936,2.885,2.885,0,0,1-.754-1.935,2.879,2.879,0,0,1,.754-1.936,2.887,2.887,0,0,1-.754-1.936,2.907,2.907,0,0,1,2.9-2.9h.213l1.648-6.6a2.435,2.435,0,0,0,.073-.6,2.463,2.463,0,0,0-.726-1.752,2.46,2.46,0,0,0-1.753-.726h-.425A.969.969,0,0,0-2367.806,3660.872Zm-12.581,14.517v7.741h1.936v-11.613h-1.936v1.936h-1.935v-1.936h-7.742v11.613h7.742v-7.741Zm13.549,4.837a.969.969,0,0,0,.968.967h5.807a.969.969,0,0,0,.968-.967.969.969,0,0,0-.968-.968h-5.807A.969.969,0,0,0-2366.838,3680.226Zm0-3.871a.969.969,0,0,0,.968.967h5.807a.969.969,0,0,0,.968-.967.969.969,0,0,0-.968-.968h-5.807A.969.969,0,0,0-2366.838,3676.355Zm0-3.872a.969.969,0,0,0,.968.968h5.807a.969.969,0,0,0,.968-.968.969.969,0,0,0-.968-.968h-5.807A.969.969,0,0,0-2366.838,3672.483Zm13.549-1.26a.3.3,0,0,0,.537.163l2.494-3.741h-3.031Zm-2.329-15.913.224.892,1.56.391a8.375,8.375,0,0,1,6.352,8.15v.967h6.773a2.907,2.907,0,0,0,2.9-2.9v-20.578a7.682,7.682,0,0,1-1.936.254,7.751,7.751,0,0,1-7.742-7.742h-30a2.907,2.907,0,0,0-2.9,2.9v25.162a2.907,2.907,0,0,0,2.9,2.9h6.5a4.822,4.822,0,0,0,1.24-3.217v-1.621a2.907,2.907,0,0,1,2.4-2.854,8.315,8.315,0,0,1,3-1.432l1.55-.386.223-.891a4.837,4.837,0,0,1-2.231-3.148h-.1a3.874,3.874,0,0,1-3.871-3.871,3.815,3.815,0,0,1,.269-1.39,4.808,4.808,0,0,1-.269-1.513,4.824,4.824,0,0,1,2.936-4.437,4.845,4.845,0,0,1,4.806-4.273,4.682,4.682,0,0,1,1.935.418,4.682,4.682,0,0,1,1.935-.418,4.845,4.845,0,0,1,4.806,4.273,4.824,4.824,0,0,1,2.936,4.437,4.8,4.8,0,0,1-.269,1.513,3.816,3.816,0,0,1,.269,1.39,3.875,3.875,0,0,1-3.871,3.871h-.1A4.84,4.84,0,0,1-2355.618,3655.311Zm-8.261,3.156c-.117.029-.229.069-.342.1a4.428,4.428,0,0,1,.929.69,4.386,4.386,0,0,1,1.293,3.122,4.506,4.506,0,0,1-.131,1.069l-.565,2.259h13.277v-.969a6.442,6.442,0,0,0-4.887-6.271l-1.426-.358-3.364,5.608-3.365-5.608Zm2.915-1.621,1.868,3.112,1.868-3.112-.221-.883a4.732,4.732,0,0,1-.679.069h-1.935a4.728,4.728,0,0,1-.679-.069Zm-2-5.652a2.906,2.906,0,0,0,2.9,2.9h1.935a2.907,2.907,0,0,0,2.9-2.9v-4.867a17.465,17.465,0,0,1-6.8-1.807.725.725,0,0,0-.345-.1.6.6,0,0,0-.6.6h0Zm9.678-.969a1.937,1.937,0,0,0,1.935-1.935,1.938,1.938,0,0,0-1.935-1.936Zm-13.549-1.935a1.937,1.937,0,0,0,1.935,1.935v-3.871A1.937,1.937,0,0,0-2366.838,3648.291Zm5.6-5.54a15.6,15.6,0,0,0,6.979,1.669h.968a3.828,3.828,0,0,1,1.9.517,2.9,2.9,0,0,0-2.15-2.349l-.76-.194.048-.94a2.9,2.9,0,0,0-2.906-2.841,2.859,2.859,0,0,0-1.449.405l-.487.283-.487-.282a2.857,2.857,0,0,0-1.449-.405,2.907,2.907,0,0,0-2.9,2.9h0a.323.323,0,0,1,.012.114l.017.768-.746.189a2.894,2.894,0,0,0-2.149,2.349,3.833,3.833,0,0,1,1.9-.517h.08a2.532,2.532,0,0,1,2.454-1.936A2.563,2.563,0,0,1-2361.236,3642.751Zm15.688-8.009a5.812,5.812,0,0,0,5.807,5.807,5.811,5.811,0,0,0,5.806-5.807,5.811,5.811,0,0,0-5.806-5.806A5.811,5.811,0,0,0-2345.547,3634.742Zm-32.9,25.162a3.875,3.875,0,0,1,3.871-3.872,3.876,3.876,0,0,1,3.872,3.872,3.875,3.875,0,0,1-3.872,3.871A3.874,3.874,0,0,1-2378.451,3659.9Zm1.935,0a1.938,1.938,0,0,0,1.935,1.936,1.938,1.938,0,0,0,1.935-1.936,1.938,1.938,0,0,0-1.935-1.936A1.938,1.938,0,0,0-2376.516,3659.9Zm-1.935-5.807v-1.936h7.742v1.936Zm5.806-3.872v-1.935h1.936v1.935Zm-5.806,0v-1.935h3.871v1.935Zm0-3.871v-1.935h7.742v1.935Zm0-3.871v-5.806h7.742v5.806Zm1.935-1.936h3.871v-1.936h-3.871Zm32.219-4.155,1.369-1.368,1.251,1.25,4.155-4.155,1.369,1.369-5.523,5.523Z" transform="translate(2392 -3627)" fill="#202020"/>
</svg>
