<svg xmlns="http://www.w3.org/2000/svg" width="60.001" height="60" viewBox="0 0 60.001 60">
  <path id="f4" d="M-2381.022,3687A10.989,10.989,0,0,1-2392,3676a10.989,10.989,0,0,1,10.987-10.992c.229.01.439.01.659.021a.949.949,0,0,0,.719-.29l2.866-2.87-1.408-1.409a3.964,3.964,0,0,1-.932-4.2,3.954,3.954,0,0,1,3.438-2.572,3.98,3.98,0,0,1,1.02-3.839,3.9,3.9,0,0,1,2.087-1.07,3.968,3.968,0,0,1,.459-4.277,3.96,3.96,0,0,1,4.083-1.34,3.977,3.977,0,0,1,2.591-3.436,3.971,3.971,0,0,1,4.2.937l2.826,2.829,4.123-4.129a.971.971,0,0,0,.29-.709,10.982,10.982,0,0,1,4.492-9.557,10.957,10.957,0,0,1,10.464-1.339,1.019,1.019,0,0,1,.619.73.991.991,0,0,1-.27.909l-6.121,6.118.53,3.719,3.713.529,6.11-6.127a1,1,0,0,1,.914-.27,1,1,0,0,1,.724.62,10.987,10.987,0,0,1-1.338,10.477,10.959,10.959,0,0,1-9.545,4.5.935.935,0,0,0-.709.29l-1.288,1.3.24.24a9.061,9.061,0,0,1,2.565,5.378l.719,6.417a9.011,9.011,0,0,0,2.147,4.908l.678-.68a.968.968,0,0,1,.7-.289.988.988,0,0,1,.709.289l5.651,5.658a1,1,0,0,1,0,1.41,1,1,0,0,1-1.417,0l-4.943-4.949-15.525,15.555.709.7a1.007,1.007,0,0,1,0,1.419,1.036,1.036,0,0,1-.709.291,1.019,1.019,0,0,1-.708-.291l-1.408-1.419a.976.976,0,0,1-.3-.7,1,1,0,0,1,.3-.709l.708-.709-11.3-11.306-2.866,2.869a.93.93,0,0,0-.289.72c.009.21.019.43.019.65a10.983,10.983,0,0,1-10.973,11Zm-8.981-11a8.992,8.992,0,0,0,8.981,9h.029a8.991,8.991,0,0,0,8.977-9c0-.181-.01-.36-.021-.541a2.94,2.94,0,0,1,.868-2.239l14.877-14.9a1,1,0,0,1,1.408,0,1.01,1.01,0,0,1,0,1.42l-10.595,10.606,11.3,11.306,12.73-12.755a11.045,11.045,0,0,1-2.707-6.1l-.719-6.417a7.132,7.132,0,0,0-2.006-4.189l-4.473-4.468a2.037,2.037,0,0,0-2.826,0l-4.942,4.948a1,1,0,0,0,0,1.41,2.993,2.993,0,0,0,4.234,0,3.069,3.069,0,0,1,4.233,0,2.994,2.994,0,0,1,.878,2.119,2.993,2.993,0,0,1-.878,2.119l-.7.711a5,5,0,0,0,0,7.067l.7.709a1,1,0,0,1,0,1.41.975.975,0,0,1-.7.3.977.977,0,0,1-.7-.3l-.708-.7a7.01,7.01,0,0,1,0-9.9l.708-.71a1,1,0,0,0,.29-.71.971.971,0,0,0-.29-.7,1.012,1.012,0,0,0-1.408,0,5.006,5.006,0,0,1-6.29.629c-.031.021-.04.05-.071.07a3.907,3.907,0,0,1-2.066,1.1,3.958,3.958,0,0,1-.114,3.715,3.953,3.953,0,0,1-3.141,1.982,3.989,3.989,0,0,1-1.884,4.463,3.979,3.979,0,0,1-4.8-.655l-3.534-3.538-2.865,2.879a2.969,2.969,0,0,1-2.237.87c-.179-.009-.4-.02-.549-.02h0A8.991,8.991,0,0,0-2390,3676Zm14.642-20.369a2.016,2.016,0,0,0-1.408.58,1.988,1.988,0,0,0-.589,1.42,1.985,1.985,0,0,0,.589,1.41l6.35,6.368a2,2,0,0,0,2.824,0,2,2,0,0,0,0-2.83l-.7-.709-5.651-5.658a1.976,1.976,0,0,0-1.4-.58Zm2.126-4.368a2,2,0,0,0-.585,1.415,2,2,0,0,0,.585,1.414l.7.71,5.651,5.658a2,2,0,0,0,2.825,0,2,2,0,0,0,0-2.829l-1.408-1.42h-.01l-2.465-2.469-2.476-2.479a1.989,1.989,0,0,0-1.408-.582A1.987,1.987,0,0,0-2373.235,3651.263Zm2.816-5.649a1.991,1.991,0,0,0-.584,1.41,1.987,1.987,0,0,0,.584,1.409l3.884,3.889,2.476,2.479a2.055,2.055,0,0,0,2.825,0l.121-.15a2.946,2.946,0,0,1,0-2.529l-.121-.15-6.36-6.358a2.029,2.029,0,0,0-1.412-.569A2.029,2.029,0,0,0-2370.418,3645.614Zm4.941-3.538a2.016,2.016,0,0,0,0,2.829l5.651,5.658,2.826-2.829-5.651-5.658a2.05,2.05,0,0,0-1.413-.562A2.054,2.054,0,0,0-2365.478,3642.076Zm15.536,4.238,2.826,2.829,1.3-1.3a2.924,2.924,0,0,1,2.237-.869,8.972,8.972,0,0,0,7.3-3.065,9,9,0,0,0,2.041-7.662l-5.272,5.279a1.007,1.007,0,0,1-.849.289l-4.943-.71a1,1,0,0,1-.848-.85l-.708-4.948a1,1,0,0,1,.289-.85l5.271-5.278a8.972,8.972,0,0,0-7.652,2.043,9,9,0,0,0-3.061,7.313,2.918,2.918,0,0,1-.869,2.239l-4.124,4.128,1.408,1.409a4.079,4.079,0,0,1,2.825-1.133A4.082,4.082,0,0,1-2349.941,3646.314Zm-29.829,36.231-5.568-1.494a1,1,0,0,1-.706-.706l-1.491-5.576a1,1,0,0,1,.258-.964l4.076-4.082a1,1,0,0,1,.965-.259l5.568,1.494a1,1,0,0,1,.706.707l1.491,5.575a1,1,0,0,1-.259.966l-4.076,4.081a1,1,0,0,1-.706.292A.959.959,0,0,1-2379.77,3682.545Zm-5.688-7.73,1.194,4.448,4.455,1.2,3.265-3.254-1.2-4.459-4.454-1.2Z" transform="translate(2392 -3627)" fill="#202020"/>
</svg>
