<svg xmlns="http://www.w3.org/2000/svg" width="60" height="60" viewBox="0 0 60 60">
  <path id="f6" d="M-2368.774,3687v-1.546a2.918,2.918,0,0,0-.636-1.814l-2.393-2.991a4.844,4.844,0,0,1-1-2.227l-1.741-10.446a3.141,3.141,0,0,1-.042-.506v-.618a3.081,3.081,0,0,1,3.078-3.078h2.568l1.734,9.535a1.348,1.348,0,0,0,.362.7v-19.827l-5.3,7.655h-14.234a2.9,2.9,0,0,1-2.725,1.935,2.907,2.907,0,0,1-2.9-2.9,2.907,2.907,0,0,1,2.9-2.9,2.9,2.9,0,0,1,2.725,1.936h2.114v-3.871h1.936v3.871h1.935v-7.742h1.936v7.742h1.935V3654.1h1.936v5.807h1.428l5.169-7.467a5.789,5.789,0,0,1-1.759-4.146,5.811,5.811,0,0,1,3.817-5.448l-.723-3.261h-2.126v1.666l-2.6.864q-.078.2-.168.405l1.224,2.447-3.724,3.724-2.448-1.224q-.2.09-.4.169l-.865,2.595h-5.266l-.866-2.595q-.2-.079-.4-.169l-2.447,1.224-3.724-3.724,1.224-2.447q-.089-.2-.168-.405l-2.594-.865v-5.266l2.6-.864c.052-.136.108-.27.168-.405l-1.224-2.447,3.724-3.724,2.447,1.223c.135-.059.269-.115.405-.168l.865-2.595h5.266l.865,2.595c.135.052.27.108.4.168l2.447-1.224,3.724,3.724-1.224,2.447c.059.135.115.27.168.4l2.595.865v1.666h3.68l1.073,4.842c.028,0,.056,0,.085,0a5.766,5.766,0,0,1,2.549.6l6.7-7.372h3.38a9.69,9.69,0,0,1,9.628-8.71,9.687,9.687,0,0,1,9.677,9.677,9.688,9.688,0,0,1-9.677,9.678,9.691,9.691,0,0,1-9.628-8.71h-2.524l-5.974,6.572a5.786,5.786,0,0,1,1.675,4.073,5.8,5.8,0,0,1-.952,3.186l9.074,8.427h.587V3654.1h1.936v5.807h1.935v-3.871h1.936v3.871h1.936v-7.742h1.936v7.742h2.114a2.9,2.9,0,0,1,2.725-1.936,2.907,2.907,0,0,1,2.9,2.9,2.907,2.907,0,0,1-2.9,2.9,2.9,2.9,0,0,1-2.725-1.935h-13.139l-9.641-8.953a5.638,5.638,0,0,1-.624.421v6.774a2.863,2.863,0,0,1,.968-.178,2.907,2.907,0,0,1,2.9,2.9v.178a2.863,2.863,0,0,1,.968-.178,2.9,2.9,0,0,1,2.791,2.149,2.883,2.883,0,0,1,1.08-.213,2.907,2.907,0,0,1,2.9,2.9V3677.9a4.849,4.849,0,0,1-1.061,3.021l-2.174,2.718a2.916,2.916,0,0,0-.636,1.814V3687Zm-3.871-20.148v.618a1.221,1.221,0,0,0,.015.188l1.741,10.448a2.905,2.905,0,0,0,.6,1.336l2.393,2.991a4.865,4.865,0,0,1,1.044,2.633h11.646a4.85,4.85,0,0,1,1.044-2.633l2.174-2.718a2.916,2.916,0,0,0,.636-1.815v-10.255a.97.97,0,0,0-.968-.968.969.969,0,0,0-.968.968v6.774h-1.936v-8.71a.97.97,0,0,0-.968-.968.97.97,0,0,0-.968.968v8.71h-1.936v-11.613a.969.969,0,0,0-.968-.968.969.969,0,0,0-.968.968v11.613h-1.936v-23.226a.97.97,0,0,0-.968-.968.969.969,0,0,0-.968.968v25.161h-.968a3.286,3.286,0,0,1-3.234-2.7l-1.445-7.946h-.953A1.143,1.143,0,0,0-2372.645,3666.852Zm36.774-5.981a.97.97,0,0,0,.968.968.97.97,0,0,0,.968-.968.97.97,0,0,0-.968-.968A.969.969,0,0,0-2335.871,3660.871Zm-54.194,0a.97.97,0,0,0,.968.968.97.97,0,0,0,.968-.968.969.969,0,0,0-.968-.968A.97.97,0,0,0-2390.065,3660.871Zm22.258-12.581a3.864,3.864,0,0,0,1,2.6,2.9,2.9,0,0,1,2.872-2.6,2.9,2.9,0,0,1,2.872,2.592,3.868,3.868,0,0,0,1-2.592,3.875,3.875,0,0,0-3.871-3.871A3.875,3.875,0,0,0-2367.807,3648.29Zm-16.06-2.769a7.752,7.752,0,0,0,1.053.439l.462.152.726,2.177h2.476l.725-2.177.462-.152a7.775,7.775,0,0,0,1.053-.439l.434-.219,2.056,1.028,1.751-1.751-1.028-2.056.219-.435a7.535,7.535,0,0,0,.439-1.052l.152-.462,2.177-.726h0v-2.473l-2.177-.726-.152-.462a7.877,7.877,0,0,0-.439-1.052l-.219-.435,1.028-2.056-1.751-1.751-2.056,1.028-.434-.22a7.531,7.531,0,0,0-1.052-.439l-.462-.152-.726-2.177h-2.476l-.726,2.176-.462.152a7.9,7.9,0,0,0-1.052.439l-.435.219-2.056-1.028-1.751,1.751,1.03,2.055-.22.435a7.578,7.578,0,0,0-.439,1.052l-.152.462-2.177.726v2.476l2.177.726.151.462a7.9,7.9,0,0,0,.439,1.052l.219.434-1.028,2.057,1.751,1.751,2.055-1.028Zm43.157-3.125v1.956a7.735,7.735,0,0,0,5.19-3l-1.686-.973A5.8,5.8,0,0,1-2340.71,3642.4Zm-7.125-1.046a7.735,7.735,0,0,0,5.19,3V3642.4a5.805,5.805,0,0,1-3.5-2.02Zm2.286-4.673a3.875,3.875,0,0,0,3.871,3.871,3.875,3.875,0,0,0,3.871-3.871,3.875,3.875,0,0,0-3.871-3.871A3.875,3.875,0,0,0-2345.549,3636.677Zm9.308-2.02a5.768,5.768,0,0,1,.37,2.02,5.771,5.771,0,0,1-.37,2.021l1.7.981a7.707,7.707,0,0,0,.606-3,7.707,7.707,0,0,0-.606-3Zm-13.179,2.02a7.707,7.707,0,0,0,.606,3l1.7-.981a5.771,5.771,0,0,1-.369-2.021,5.768,5.768,0,0,1,.369-2.02l-1.7-.982A7.707,7.707,0,0,0-2349.419,3636.677Zm8.71-5.719a5.812,5.812,0,0,1,3.5,2.02l1.686-.974a7.737,7.737,0,0,0-5.19-3Zm-7.125,1.046,1.685.974a5.8,5.8,0,0,1,3.5-2.02V3629A7.737,7.737,0,0,0-2347.835,3632Zm-38.359,6.609a5.812,5.812,0,0,1,5.806-5.806,5.812,5.812,0,0,1,5.806,5.806,5.812,5.812,0,0,1-5.806,5.807A5.812,5.812,0,0,1-2386.194,3638.613Zm1.936,0a3.875,3.875,0,0,0,3.871,3.871,3.875,3.875,0,0,0,3.871-3.871,3.875,3.875,0,0,0-3.871-3.871A3.875,3.875,0,0,0-2384.258,3638.613Z" transform="translate(2392 -3627)" fill="#202020"/>
</svg>
