<svg xmlns="http://www.w3.org/2000/svg" width="50" height="60" viewBox="0 0 50 60">
  <g id="f8" transform="translate(-7 -2)">
    <path id="Path_24585" data-name="Path 24585" d="M51.463,39.591a119.1,119.1,0,0,0-13.238-5.134c3.976-3.6,6.119-10.31,6.658-15.326A4.289,4.289,0,0,0,46,16a14,14,0,1,0-28,0,4.366,4.366,0,0,0,1.113,3.106c.536,5.019,2.68,11.742,6.662,15.35a119.1,119.1,0,0,0-13.238,5.134C7,42.481,7,54.989,7,61a1,1,0,0,0,1,1H56a1,1,0,0,0,1-1C57,54.989,57,42.481,51.463,39.591ZM27,49.659a5,5,0,0,1,2-4v4a1,1,0,0,0,1,1h4a1,1,0,0,0,1-1v-4a5,5,0,1,1-8,4Zm12,0a6.979,6.979,0,0,0-4.671-6.595A.972.972,0,0,0,33,44.009v4.65H31v-4.65a.987.987,0,0,0-1.329-.944A6.988,6.988,0,0,0,29,55.974V60H18V39.379c1.591-.625,3.271-1.241,4.784-1.777a14.2,14.2,0,0,0,18.432,0c1.513.536,3.193,1.152,4.784,1.777V60H35V55.974A7,7,0,0,0,39,49.659ZM20.264,17.218a1.411,1.411,0,0,1,.717-2.183,54.356,54.356,0,0,1,22.037.022c1.112.319,1.074,1.414.741,2.151l-.826,1.244a3.076,3.076,0,0,1-3.869,1.142,16.3,16.3,0,0,0-14.028-.008A3.071,3.071,0,0,1,21.2,18.541ZM32,4a12.011,12.011,0,0,1,11.651,9.176,54.064,54.064,0,0,0-23.295-.024A12.011,12.011,0,0,1,32,4ZM21.482,21.352a4.963,4.963,0,0,0,4.391.051,14.191,14.191,0,0,1,12.373.016,5.026,5.026,0,0,0,4.264-.031C41.292,27.448,37.847,35,32,35S22.694,27.419,21.482,21.352ZM32,37a8.636,8.636,0,0,0,4.257-1.118c.175.063,1.383.483,2.689.93a12.118,12.118,0,0,1-13.891,0c1.306-.447,2.647-.909,2.689-.93A8.636,8.636,0,0,0,32,37ZM13.463,41.364c.7-.366,1.576-.764,2.537-1.172V60H9C9.018,54.7,9.286,43.545,13.463,41.364ZM31,60V56.579a6.387,6.387,0,0,0,2,0V60Zm17,0V40.193c.961.408,1.836.805,2.537,1.172C54.714,43.545,54.982,54.7,55,60Z" fill="#202020"/>
  </g>
</svg>
