<svg xmlns="http://www.w3.org/2000/svg" width="64.158" height="60" viewBox="0 0 64.158 60">
  <path id="feature-icon5" d="M3154.94,3687a.944.944,0,0,1-.664-1.6l29.414-29.415a2.179,2.179,0,0,0,.525-2.26l-2.57-7.528a.94.94,0,0,1,.225-.968l6.877-6.877a.945.945,0,0,1,.665-.275h9.807a4.945,4.945,0,0,1,4.94,4.938v39.051a4.945,4.945,0,0,1-4.94,4.938Zm35.8-9.834a.94.94,0,0,1,0,1.329l-6.625,6.625h15.106a3.063,3.063,0,0,0,3.06-3.059v-15.106l-8.425,8.424a.94.94,0,0,1-1.329-1.329l9.754-9.754v-3.013l-23.836,23.836h3.012l7.954-7.954a.94.94,0,0,1,1.329,0Zm-26.705,1.132,6.822,6.822h3.012l-8.328-8.328Zm-6.822,6.822H3168.2l-5.493-5.493Zm9.657-9.657,9.287,9.287,11.233-11.233-1.9-1.9a2.869,2.869,0,0,0-2.042-.846h-1.146a4.738,4.738,0,0,1-3.372-1.4l-2.981-2.981Zm16.746-29.323,2.381,6.974a4.047,4.047,0,0,1-.974,4.2l-7.749,7.749,2.981,2.981a2.869,2.869,0,0,0,2.042.846h1.146a4.737,4.737,0,0,1,3.372,1.4l1.9,1.9,13.134-13.134-15.575-15.576Zm3.992-3.992,14.672,14.673v-3.014l-13.166-13.166Zm14.673,9v-8.137a3.063,3.063,0,0,0-3.06-3.059h-8.136ZM3144.939,3687a4.945,4.945,0,0,1-4.94-4.938v-39.051a4.945,4.945,0,0,1,4.94-4.938h.695a.94.94,0,0,1,0,1.88h-.695a3.062,3.062,0,0,0-3.06,3.059v5.052l3.835,3.835a.94.94,0,1,1-1.329,1.329l-2.506-2.506v12.739l12.735,12.735,3.061-3.061a5.039,5.039,0,1,1,1.762.9l-12.692,12.692a.935.935,0,0,1-.481.257,1.129,1.129,0,0,1-.184.018Zm-3.06-4.938a3.062,3.062,0,0,0,3.06,3.058h.751l4.759-4.759-8.57-8.57Zm0-12.929,9.9,9.9,1.506-1.507-11.406-11.406Zm15.745.036a3.171,3.171,0,1,0,3.171-3.17A3.174,3.174,0,0,0,3157.625,3669.169Zm9.5-4.154a.94.94,0,0,1,0-1.329l10.341-10.341-2.381-6.976a4.1,4.1,0,0,1,.974-4.195l2.222-2.222h-5.86c-.852,9.206-10.484,20.528-10.913,21.027a.94.94,0,0,1-1.427,0c-.448-.522-10.974-12.894-10.974-22.292a11.687,11.687,0,0,1,23.358-.615h8.084a.945.945,0,0,1,.665,1.6l-3.827,3.827a2.206,2.206,0,0,0-.524,2.258l2.57,7.53a.939.939,0,0,1-.225.968l-10.755,10.755a.94.94,0,0,1-1.329,0Zm-16.137-26.328c0,7.354,7.44,17.238,9.807,20.2,2.333-2.915,9.589-12.553,9.8-19.87v0s0,0,0,0c0-.107.005-.214.005-.321a9.807,9.807,0,0,0-19.615,0Zm4.4-.1A5.412,5.412,0,1,1,3160.8,3644h-.048A5.462,5.462,0,0,1,3155.383,3638.588Zm5.413,3.533a3.538,3.538,0,0,0,3.258-2.169h-6.517A3.538,3.538,0,0,0,3160.8,3642.121Zm-3.495-4.049h6.989a3.532,3.532,0,0,0-6.989,0Z" transform="translate(-3140 -3627)" fill="#202020"/>
</svg>
