<svg xmlns="http://www.w3.org/2000/svg" width="54.348" height="60" viewBox="0 0 54.348 60">
  <path id="Union_41" data-name="Union 41" d="M1.172,60A1.172,1.172,0,0,1,0,58.828V26.867A1.172,1.172,0,0,1,.7,25.8l22.968-10.2V1.172a1.172,1.172,0,0,1,1.58-1.1L53.583,10.585a1.172,1.172,0,0,1,.764,1.1V58.828A1.172,1.172,0,0,1,53.175,60ZM49.44,50.838v6.818H52V12.5l-26-9.642v26.49a1.172,1.172,0,1,1-2.344,0V18.158l-21.32,9.47V50.772h4v-8.11A1.172,1.172,0,0,1,7.515,41.49H18.493a1.172,1.172,0,0,1,1.172,1.172v8.11h4V39.942a1.172,1.172,0,1,1,2.344,0V57.656h2.563V50.838a1.172,1.172,0,1,1,2.344,0v6.818h2.724V45.649a1.172,1.172,0,0,1,1.172-1.172H43.2a1.172,1.172,0,0,1,1.172,1.172V57.656H47.1V50.838a1.172,1.172,0,1,1,2.344,0ZM35.983,57.656h6.046V46.821H35.983Zm-33.639,0h21.32V53.116H2.344Zm6.343-6.884h8.634V43.834H8.687ZM41.813,40.645a1.172,1.172,0,0,1-1.172-1.172V29.728a1.172,1.172,0,0,1,1.172-1.172h6.455a1.172,1.172,0,0,1,1.172,1.172v9.745a1.172,1.172,0,0,1-1.172,1.172ZM42.985,38.3H47.1V30.9H42.985ZM29.743,40.645a1.172,1.172,0,0,1-1.172-1.172V29.728a1.172,1.172,0,0,1,1.172-1.172H36.2a1.172,1.172,0,0,1,1.172,1.172v9.745A1.172,1.172,0,0,1,36.2,40.645ZM30.915,38.3h4.111V30.9H30.915Zm-23.4-.16a1.172,1.172,0,0,1-1.172-1.172v-6.5a1.172,1.172,0,0,1,.718-1.08l7.308-3.075a1.172,1.172,0,0,1,.454-.092h3.67a1.172,1.172,0,0,1,1.172,1.172v9.577a1.172,1.172,0,0,1-1.172,1.172Zm1.172-6.9V35.8h8.634V28.564H15.06ZM23.734,35.06a1.171,1.171,0,1,1,1.1.777A1.182,1.182,0,0,1,23.734,35.06Zm18.081-9.577a1.172,1.172,0,0,1-1.172-1.172V16.3a1.172,1.172,0,0,1,1.579-1.1l6.454,2.394a1.172,1.172,0,0,1,.764,1.1v5.621a1.172,1.172,0,0,1-1.172,1.172Zm1.172-2.344H47.1V19.505l-4.11-1.525ZM29.743,25.483a1.172,1.172,0,0,1-1.172-1.172V12.229a1.172,1.172,0,0,1,1.172-1.172H30.85a1.171,1.171,0,0,1,.408.073l5.348,1.983a1.172,1.172,0,0,1,.764,1.1v10.1A1.172,1.172,0,0,1,36.2,25.483Zm1.172-2.344h4.111V15.027L30.915,13.5Z"/>
</svg>
