<svg xmlns="http://www.w3.org/2000/svg" width="52.452" height="60" viewBox="0 0 52.452 60">
  <g id="feature-icon4" transform="translate(-26.48)">
    <g id="Group_7795" data-name="Group 7795" transform="translate(26.48)">
      <path id="Path_21418" data-name="Path 21418" d="M73.23,20.525a20.525,20.525,0,1,0-41.049,0c-2.93.365-5.7,2.281-5.7,6.727V37.97c0,5.017,3.512,6.842,6.842,6.842h3.307a1.14,1.14,0,0,0,1.14-1.14V21.6a1.14,1.14,0,0,0-1.14-1.14H34.462a18.244,18.244,0,0,1,36.488,0H68.783a1.14,1.14,0,0,0-1.14,1.14V43.637a1.14,1.14,0,0,0,1.14,1.14H70.95c-.319,7.834-4.082,9.669-11.6,10v-.764a2.28,2.28,0,0,0-2.281-2.281H49.9a2.28,2.28,0,0,0-2.281,2.281v3.706A2.28,2.28,0,0,0,49.9,60H57.1a2.28,2.28,0,0,0,2.281-2.281v-.661c7.229-.331,13.478-1.824,13.854-12.349,2.93-.365,5.7-2.281,5.7-6.727V27.263C78.932,22.794,76.172,20.889,73.23,20.525ZM35.488,22.657V42.5H33.265c-1.688,0-4.561-.593-4.561-4.561V27.218c0-3.934,2.839-4.561,4.561-4.561ZM57.1,56v1.733H49.9V54.025H57.1ZM76.651,37.97c0,3.934-2.839,4.561-4.561,4.561H69.924V22.737h2.223c1.688,0,4.561.593,4.561,4.561Z" transform="translate(-26.48)" fill="#202020"/>
    </g>
  </g>
</svg>
