<svg xmlns="http://www.w3.org/2000/svg" width="60" height="60" viewBox="0 0 60 60">
  <path id="feature-icon2" d="M3187.419,3687v-10.645h-2.9V3687h-1.936v-10.645h-1.935a4.829,4.829,0,0,1-1.14-.15,9.67,9.67,0,0,1-19.01,0,4.825,4.825,0,0,1-1.14.15h-1.936V3687h-1.936v-10.645h-2.9V3687h-1.935v-10.6a9.69,9.69,0,0,0-8.71,9.628V3687H3140v-.968a11.618,11.618,0,0,1,6.774-10.542v-2.434a6.158,6.158,0,0,1,1.72-11.194l1.183-.268v5.083h1.936V3661.6l1.181.266a6.157,6.157,0,0,1,1.723,11.194v1.364h4.839a2.907,2.907,0,0,0,2.9-2.9v-4.031a15.481,15.481,0,0,1-7.742-13.389v-.137a3.867,3.867,0,0,1-2.9-3.734,5.405,5.405,0,0,1,1.022-3.317,3.017,3.017,0,0,1-.055-.553v-1.936a17.419,17.419,0,0,1,34.839,0v1.936a3.039,3.039,0,0,1-.054.553,5.407,5.407,0,0,1,1.022,3.318,3.867,3.867,0,0,1-2.9,3.733v.137a15.481,15.481,0,0,1-7.742,13.389v4.031a2.907,2.907,0,0,0,2.9,2.9h2.9v-1.935a21.572,21.572,0,0,1,1.017-6.113l3.184-7.436h5.146l3.155,7.361a21.683,21.683,0,0,1,1.046,6.188v5.806h-.078a11.553,11.553,0,0,1,2.982,7.742V3687h-1.936v-.968a9.691,9.691,0,0,0-8.709-9.628V3687Zm-23.226-15.484a4.811,4.811,0,0,1-1.879,3.8,7.737,7.737,0,0,0,15.372,0,4.811,4.811,0,0,1-1.879-3.8v-3.075a15.358,15.358,0,0,1-11.613,0Zm27.1-1.758a2.885,2.885,0,0,1,.555,5.187,11.6,11.6,0,0,1,3.316,1.674v-4.134a19.9,19.9,0,0,0-.918-5.5l-2.623-6.113h-.33Zm-45.484-2.113a4.058,4.058,0,0,0,2.366,3.972l.537.267v2.918a11.548,11.548,0,0,1,2.9-.382h.968v-2.535l.537-.267a4.265,4.265,0,0,0,.431-7.395v4.391h-5.806v-4.388A4.084,4.084,0,0,0,3145.806,3667.645Zm40.567-.586a19.7,19.7,0,0,0-.889,5.425v1.936h2.69a2.877,2.877,0,0,1,1.181-4.661v-8.887h-.33Zm2.981,5.425a.968.968,0,1,0,.968-.968A.969.969,0,0,0,3189.354,3672.484Zm-32.9-18.387a13.548,13.548,0,0,0,27.1,0v-3.74c-4.267,1.626-10.879,1.8-13.549,1.8s-9.282-.179-13.548-1.8Zm29.032-4.7v2.5a1.93,1.93,0,0,0,.968-1.667,4.064,4.064,0,0,0-.231-1.391A6.017,6.017,0,0,1,3185.483,3649.4Zm-31.936.83a1.927,1.927,0,0,0,.968,1.666v-2.5a5.845,5.845,0,0,1-.737-.56A4.061,4.061,0,0,0,3153.548,3650.226Zm.969-3.868c0,1.9,5.8,3.868,15.483,3.868s15.484-1.968,15.484-3.871c-.183-.982-5.814-2.9-15.484-2.9S3154.706,3645.371,3154.517,3646.358Zm30.941-2.447a15.481,15.481,0,0,0-14.49-14.926v6.725h-1.936v-6.725a15.48,15.48,0,0,0-14.49,14.925c3.444-1.835,10.673-2.393,15.458-2.393S3182.013,3642.075,3185.457,3643.911Zm-16.426,18.9v-9.677h10.645v1.936h-8.71v7.742Zm-11.613-21.29v-1.935h1.936v1.935Zm3.871-.968v-1.936h1.935v1.936Z" transform="translate(-3140 -3627)" fill="#202020"/>
</svg>
