<svg xmlns="http://www.w3.org/2000/svg" width="60" height="60" viewBox="0 0 60 60">
  <path id="Union_95" data-name="Union 95" d="M15.436,59.588,9.3,49H-.318A5.679,5.679,0,0,1-6,43.339V22.549a5.679,5.679,0,0,1,5.682-5.66H25.448V10.6a.826.826,0,0,1,.828-.823h6.485a.825.825,0,0,1,.827.823v.59a11.045,11.045,0,0,0,4.784-3.845c0-.007.012-.019.015-.027.024-.035.06-.095.11-.173.1-.157.26-.4.477-.729a5.609,5.609,0,0,0,.815-2.287A7.171,7.171,0,0,0,39.848,2.8a2.759,2.759,0,0,1,.362-1.7,2.533,2.533,0,0,1,2.859-.98,3.277,3.277,0,0,1,1.642,1.2c.043.058.079.11.114.16.012.016.02.036.032.051a7.105,7.105,0,0,1,.122,5.82A13.311,13.311,0,0,1,44.2,9.084c-.134.263-.259.51-.378.765a3.137,3.137,0,0,0-.189.522h6.966a2.691,2.691,0,0,1,2.693,2.682,2.654,2.654,0,0,1-.466,1.5,2.676,2.676,0,0,1,.174,4.309,2.672,2.672,0,0,1-.758,3.934,2.659,2.659,0,0,1,.409,1.419A2.692,2.692,0,0,1,49.952,26.9H46.825V43.343A5.678,5.678,0,0,1,41.144,49H23.008L16.869,59.592a.831.831,0,0,1-1.433,0ZM-4.342,22.549V43.343A4.025,4.025,0,0,0-.314,47.355H9.777a.83.83,0,0,1,.717.411l5.663,9.766,5.658-9.766a.832.832,0,0,1,.717-.411H41.144a4.025,4.025,0,0,0,4.028-4.012V26.9H42.278c-.145,0-.287,0-.437,0a21.572,21.572,0,0,1-2.654-.176,12.865,12.865,0,0,1-2.984-.624,6.442,6.442,0,0,1-1.177-.592c-.052-.031-.1-.063-.154-.1a3.157,3.157,0,0,0-.725-.38,1.41,1.41,0,0,0-.366-.016c-.055,0-.11,0-.162,0h-.032v.9a.824.824,0,0,1-.827.823H26.276a.825.825,0,0,1-.828-.823V18.536H-.314A4.025,4.025,0,0,0-4.342,22.549Zm38.981.913a4.547,4.547,0,0,1,1.114.565c.047.031.095.059.145.09a4.816,4.816,0,0,0,.882.446,11.4,11.4,0,0,0,2.607.534,19.116,19.116,0,0,0,2.862.157h7.7a1.035,1.035,0,1,0,0-2.071.838.838,0,0,1-.087,0H46.787a.824.824,0,1,1,0-1.647h4.071a1.035,1.035,0,1,0,0-2.071c-.026,0-.052,0-.077,0H47.274a.824.824,0,1,1,0-1.648h4.032a1.035,1.035,0,1,0,0-2.071.829.829,0,0,1-.262-.042,2.72,2.72,0,0,1-.458.039H47.518a.824.824,0,1,1,0-1.647h3.068a1.035,1.035,0,1,0,0-2.071h-7.9a.826.826,0,0,1-.827-.823,4.757,4.757,0,0,1,.449-2.044c.13-.278.267-.549.4-.812a11.9,11.9,0,0,0,.693-1.529,5.723,5.723,0,0,0,.007-4.46c-.012-.016-.023-.031-.035-.051a1.682,1.682,0,0,0-.8-.612.872.872,0,0,0-.988.3,1.287,1.287,0,0,0-.095.737,8.735,8.735,0,0,1-.075,1.635,7.388,7.388,0,0,1-.96,2.777.8.8,0,0,1-.095.223c-.032.051-.244.389-.606.875v0s0,.008-.007.008c-1.032,1.379-3.279,3.939-6.167,4.647v10.48H33.6c.043,0,.09,0,.134,0,.067,0,.139,0,.214,0A2.241,2.241,0,0,1,34.639,23.462ZM27.1,25.1h4.831V11.421H27.1Zm1.122,7.848a3.989,3.989,0,1,1,3.989,3.973A3.983,3.983,0,0,1,28.225,32.945Zm1.654,0a2.335,2.335,0,1,0,2.335-2.326A2.333,2.333,0,0,0,29.879,32.942Zm-13.455,0a3.989,3.989,0,1,1,3.988,3.973A3.989,3.989,0,0,1,16.424,32.945Zm1.654,0a2.335,2.335,0,1,0,2.335-2.326A2.333,2.333,0,0,0,18.078,32.942Zm-13.455,0a3.989,3.989,0,1,1,3.989,3.973A3.983,3.983,0,0,1,4.623,32.945Zm1.654,0a2.335,2.335,0,1,0,2.335-2.326A2.333,2.333,0,0,0,6.277,32.942Z" transform="translate(6)" fill="#202020"/>
</svg>
