<svg xmlns="http://www.w3.org/2000/svg" width="53.529" height="60" viewBox="0 0 53.529 60">
  <path id="funfact3" d="M42.362,39.1a13.381,13.381,0,0,0,7.542,0,6.166,6.166,0,0,0,6.157,5.673,1,1,0,0,0,0-2,4.18,4.18,0,0,1-4.178-4.431,13.4,13.4,0,0,0,7.625-12V17h1.125v5.807a1,1,0,0,0,2,0V17h7.375a1,1,0,1,0,0-2H62.633V13a13.015,13.015,0,0,0-13-13h-7a13.015,13.015,0,0,0-13,13v9.807a4.081,4.081,0,0,0,3.135,3.952,13.4,13.4,0,0,0,7.615,11.58A4.182,4.182,0,0,1,36.2,42.771,10.315,10.315,0,0,0,25.883,53.093V59a1,1,0,0,0,2,0V53.093A8.317,8.317,0,0,1,36.2,44.771a6.229,6.229,0,0,0,1.56-.2,9.569,9.569,0,0,0,7.368,4.874V54a1,1,0,0,0,2,0V49.448a9.5,9.5,0,0,0,2.909-.785,1,1,0,0,0-.818-1.825,7.568,7.568,0,0,1-9.623-3.08A6.145,6.145,0,0,0,42.362,39.1ZM31.633,13a11.013,11.013,0,0,1,11-11h7a11.013,11.013,0,0,1,11,11v2h-29Zm0,9.808V17h1.125v7.637a2.065,2.065,0,0,1-1.125-1.83Zm3.125,3.458V17h22.75v9.266a11.375,11.375,0,0,1-22.75,0Zm32.8,24.355L66.31,51.869c.1.83.074.685.074,7.131a1,1,0,0,1-2,0c0-8.832,0-5.749-.129-7.4a1,1,0,0,1,.23-.723c.053-.063,2.033-2.039,2.091-2.1a1,1,0,0,1,1.045-.234,7.31,7.31,0,0,0,9.593-8.506l-3.338,3.338a3.973,3.973,0,0,1-6.809-2.679,3.928,3.928,0,0,1,1.159-2.871l3.314-3.314a7.31,7.31,0,0,0-8.257,9.784,1,1,0,0,1-.227,1.063L56.3,52.111a2.453,2.453,0,0,0,3.469,3.469,1,1,0,0,1,1.414,1.414,4.453,4.453,0,0,1-6.3-6.3L61.2,44.382A9.31,9.31,0,0,1,73.807,33.136a1,1,0,0,1,.31,1.625l-4.478,4.478a1.943,1.943,0,0,0-.574,1.421,1.968,1.968,0,0,0,3.4,1.3l4.472-4.472a1,1,0,0,1,1.616.29,9.316,9.316,0,0,1-10.99,12.844Z" transform="translate(-25.883)" fill="#fff"/>
</svg>
