<svg xmlns="http://www.w3.org/2000/svg" width="55.643" height="60" viewBox="0 0 55.643 60">
  <path id="funfact1" d="M29.612,59.778a.98.98,0,0,1-.356-.84l.348-4.184a2.817,2.817,0,0,0-2.614,0l.323,4.16a.982.982,0,0,1-1.218,1.027,7.309,7.309,0,0,1-5.764-7.484,8.111,8.111,0,0,1,4.059-6.9V30.727a7.5,7.5,0,0,1-4.7-7.255,7.468,7.468,0,0,1,5.424-7.5.98.98,0,0,1,1.25,1.023l-.348,4.184a2.815,2.815,0,0,0,2.614,0L28.3,17.015a.98.98,0,0,1,1.2-1.032,7.2,7.2,0,0,1,5.836,7.432,8.179,8.179,0,0,1-4.094,6.929V45.232a7.895,7.895,0,0,1-.735,14.729.979.979,0,0,1-.894-.183ZM21.649,23.471a5.619,5.619,0,0,0,4.01,5.622.976.976,0,0,1,.691.939V46.149a.975.975,0,0,1-.559.888A6.152,6.152,0,0,0,22.3,52.449a5.365,5.365,0,0,0,2.943,5.106l-.25-3.225a.981.981,0,0,1,.37-.846,4.778,4.778,0,0,1,5.827-.038l.037.028a.981.981,0,0,1,.383.861l-.261,3.135h0a5.731,5.731,0,0,0,2.646-4.992,5.619,5.619,0,0,0-4.013-5.613.98.98,0,0,1-.7-.938V29.752a.98.98,0,0,1,.56-.886,6.273,6.273,0,0,0,3.534-5.451,5.253,5.253,0,0,0-3-5.075l.254,3.26a.981.981,0,0,1-.35.83l-.026.021a4.775,4.775,0,0,1-5.822.034l-.036-.028a.979.979,0,0,1-.384-.862l.26-3.135A5.685,5.685,0,0,0,21.649,23.471ZM9.712,48.71,5.478,44.965a.981.981,0,0,1-.105-1.36l3.292-3.974a22.616,22.616,0,0,1-2.62-6.222L.88,32.91A.975.975,0,0,1,0,31.935V24.02a.975.975,0,0,1,.881-.976l5.159-.5A21.987,21.987,0,0,1,8.662,16.32L5.373,12.349a.981.981,0,0,1,.061-1.319l5.583-5.584a.98.98,0,0,1,1.318-.061L16.31,8.677a22.615,22.615,0,0,1,6.222-2.622l.5-5.169A.98.98,0,0,1,24.007,0h7.63a.98.98,0,0,1,.976.886l.5,5.169a22.627,22.627,0,0,1,6.222,2.622l3.975-3.291a.98.98,0,0,1,1.319.061l5.583,5.583a.98.98,0,0,1,.061,1.318l-3.29,3.972A22,22,0,0,1,49.6,22.546l5.162.5a.975.975,0,0,1,.88.976v7.916a.975.975,0,0,1-.88.976l-5.162.5a22.611,22.611,0,0,1-2.621,6.222l3.291,3.975a.981.981,0,0,1-.105,1.361L45.93,48.71a.98.98,0,0,1-1.444-.161l-6.3-8.732a.981.981,0,0,1,.1-1.267,14.953,14.953,0,1,0-21.146,0,.981.981,0,0,1,.112,1.254l-6.086,8.732a.98.98,0,0,1-1.454.174ZM39.674,16.017a16.935,16.935,0,0,1,.578,23.312l5.191,7.195,2.713-2.4-3.141-3.791a.981.981,0,0,1-.066-1.162,20.677,20.677,0,0,0,2.9-6.884.977.977,0,0,1,.86-.764l4.973-.48V24.91l-4.973-.48a.973.973,0,0,1-.858-.769,20.079,20.079,0,0,0-2.9-6.874.981.981,0,0,1,.062-1.167l3.176-3.835-4.32-4.32-3.835,3.176a.979.979,0,0,1-1.162.065A20.685,20.685,0,0,0,31.99,7.8a.981.981,0,0,1-.764-.863l-.48-4.979H24.9l-.48,4.979a.981.981,0,0,1-.764.863,20.684,20.684,0,0,0-6.883,2.9.979.979,0,0,1-1.162-.065L11.773,7.464l-4.32,4.321,3.177,3.835a.981.981,0,0,1,.063,1.167,20.071,20.071,0,0,0-2.9,6.873.976.976,0,0,1-.861.769l-4.973.48v6.133l4.973.48a.974.974,0,0,1,.857.764,20.7,20.7,0,0,0,2.9,6.883.981.981,0,0,1-.065,1.163l-3.14,3.791,2.7,2.387,5-7.173A16.914,16.914,0,0,1,39.674,16.017Z" transform="translate(0)" fill="#fff"/>
</svg>
