<svg xmlns="http://www.w3.org/2000/svg" width="60.001" height="60" viewBox="0 0 60.001 60">
  <path id="funfact4" d="M5260.968,3687a.967.967,0,0,1-.967-.967v-3.871a.968.968,0,0,1,.967-.968h10.642v-19.349l-.291.231a3.423,3.423,0,0,1-2.113.73,3.351,3.351,0,0,1-3.217-2.284,3.3,3.3,0,0,1,1.127-3.716l22.017-17.024a.968.968,0,0,1,1.183,0L5313,3657.326a3.01,3.01,0,0,1,1.028,3.4,3.058,3.058,0,0,1-2.937,2.085,3.156,3.156,0,0,1-1.874-.622l-.83-.623v19.632h10.646a.968.968,0,0,1,.967.968v3.871a.967.967,0,0,1-.967.967Zm.968-1.935h56.13v-1.935h-56.13Zm26.13-21.29a.967.967,0,0,1,.967.968v2.9a.969.969,0,0,1-.387.774l-3.313,2.48.746,2.24a.968.968,0,0,1-.233.99l-1.955,1.955,4.606,2.3a.967.967,0,0,1,.535.871v1.935h17.42v-20.322h-32.9v20.322h1.937v-16.451a.967.967,0,0,1,.967-.968Zm-10.646,17.419h9.678v-1.337l-5.275-2.637a.969.969,0,0,1-.251-1.549l2.479-2.48-.775-2.337a.966.966,0,0,1,.337-1.079l3.484-2.614v-1.452h-9.678Zm-9.122-22.855a1.363,1.363,0,0,0-.477,1.561,1.42,1.42,0,0,0,1.384.972,1.487,1.487,0,0,0,.917-.317l19-14.96a.968.968,0,0,1,1.178-.013l20.077,15.053a1.194,1.194,0,0,0,.711.235,1.131,1.131,0,0,0,1.1-.774,1.082,1.082,0,0,0-.378-1.24l-22.094-17.084Zm7.01.6h29.579l-15.149-11.361Zm15.662,18.387v-1.936h13.547v1.936Zm.967-3.871a.967.967,0,0,1-.967-.968v-7.741a.967.967,0,0,1,.967-.968h11.614a.967.967,0,0,1,.967.968v7.741a.967.967,0,0,1-.967.968Zm6.774-1.937h3.871v-5.806h-3.871Zm-5.806,0h3.871v-5.806H5292.9ZM5283.227,3657a.968.968,0,0,1-.628-1.7l6.773-5.806a.967.967,0,0,1,1.259,0l6.773,5.806a.968.968,0,0,1-.628,1.7Zm2.614-1.935h8.321L5290,3651.5Zm23.516-12.581a.967.967,0,0,1-.685-.284l-3.587-3.587h-30.167l-3.587,3.587a.968.968,0,0,1-.686.284h-4.838a.969.969,0,0,1-.6-.212l-4.84-3.871a.968.968,0,0,1,.6-1.723h5.406l1.369-1.369v-1.134l-1.369-1.369h-5.406a.969.969,0,0,1-.6-1.725l4.84-3.87a.969.969,0,0,1,.6-.212h4.838a.972.972,0,0,1,.686.283l3.587,3.588h30.167l3.587-3.588a.972.972,0,0,1,.685-.283h4.838a.974.974,0,0,1,.605.212l4.839,3.87a.969.969,0,0,1-.6,1.725h-5.406l-1.369,1.369v1.134l1.369,1.369h5.406a.968.968,0,0,1,.6,1.723l-4.839,3.871a.974.974,0,0,1-.605.212Zm-3.872-5.806a.965.965,0,0,1,.684.283l3.589,3.587h4.1l2.42-1.935h-3.047a.969.969,0,0,1-.685-.283l-1.935-1.937a.963.963,0,0,1-.285-.684v-1.935a.966.966,0,0,1,.285-.685l1.935-1.935a.963.963,0,0,1,.685-.283h3.047l-2.42-1.937h-4.1l-3.589,3.588a.965.965,0,0,1-.684.283h-30.968a.966.966,0,0,1-.684-.283l-3.588-3.588h-4.1l-2.42,1.937h3.047a.967.967,0,0,1,.686.283l1.935,1.935a.969.969,0,0,1,.283.685v1.935a.965.965,0,0,1-.283.684l-1.935,1.937a.973.973,0,0,1-.686.283h-3.047l2.42,1.935h4.1l3.588-3.587a.961.961,0,0,1,.684-.283Z" transform="translate(-5260 -3627)" fill="#fff"/>
</svg>
