<svg xmlns="http://www.w3.org/2000/svg" width="66.862" height="60" viewBox="0 0 66.862 60">
  <path id="funfact2" d="M5290.84,3686.5l-12.633-4.059h-3.163v-2.115l3.648.052,12.792,4.113a8.525,8.525,0,0,0,6.534-.582l26.146-13.872a4.783,4.783,0,0,0-5.983-1.966l-14.813,6.27v-.011a4.113,4.113,0,0,1-2,.53h-11.06v-2.116h11.069a2.062,2.062,0,1,0,0-4.123h-8.543a4.587,4.587,0,0,1-1.881-.4l-7.242-3.278a6.746,6.746,0,0,0-2.76-.592h-5.9v-2.115h5.9a8.947,8.947,0,0,1,3.625.782l7.244,3.278a2.368,2.368,0,0,0,1,.222h8.543a4.178,4.178,0,0,1,4.176,4.175,3.1,3.1,0,0,1-.042.455l11.862-5.011a6.893,6.893,0,0,1,9.188,4.007l.307.867L5299,3685.773a10.608,10.608,0,0,1-8.162.73Zm-30.84-.275v-2.115h10.647v-22.457H5260v-2.115h10.647a2.122,2.122,0,0,1,2.115,2.115V3684.1a2.136,2.136,0,0,1-2.115,2.124Zm4.9-5.413a1.485,1.485,0,1,1,1.491,1.48A1.489,1.489,0,0,1,5264.9,3680.815Zm51.922-24.477-5.826-3.5-6.628,3.668-1.153-.952.212-.708,1.522-6.586-1.935-1.808,1.449-1.544,2.707,2.527.01.623-1.194,5.139,4.366-2.421.191-.2.929-.011.223.223,4.3,2.579-1-5.245v-.455l.349-.369,3.922-3.405-5.042-.623h-.994l-.021-.857-1.935-4.557-2.252,4.842-.445.445-.474.021-2.041.19-.191-2.1,1.554-.137,2.96-6.323.327-.517,1.259.042.318.581,2.706,6.365,7.423.909.243.752a1.114,1.114,0,0,1-.381,1.162l-5.085,4.408,1.438,7.38-1.152.867Zm-33.854-.01-5.815-3.489-6.586,3.647-1.194-.877.211-.761,1.533-6.586-4.948-4.6-.582-.38.445-1.544.835-.042,6.725-.581,2.854-6.143.2-.624,1.459-.116.358.677,2.686,6.343,2.041.243-.264,2.1-2.548-.318h-.592l-.328-.624-2.03-4.788-2.253,4.842-.443.444-.486.011-5.033.444,4.112,3.828v.623l-1.184,5.139,4.387-2.431.212-.212.9.021.223.212,4.293,2.59-.995-5.256v-.422l.306-.359,2.042-1.767,1.384,1.6-1.532,1.321,1.438,7.39-1.174.857Zm18.174-3.394-7.114-4.281-7.866,4.356-1.143-.846,2.042-8.785-6.567-6.122.424-1.322.708-.085,8.29-.7,3.795-8.151h.719l.677.01.3.634,3.235,7.656,8.9,1.1.443,1.311-.507.487-6.292,5.455,1.713,8.818-1.143.825Zm-6.544-6.428,5.667,3.416-1.375-7.084.5-.424,4.948-4.292-7.147-.877-.265-.582-2.568-6.058-3.036,6.513-.623.075-6.576.571,5.318,4.937-.18.656-1.47,6.344,6.27-3.479Z" transform="translate(-5260 -3627)" fill="#fff"/>
</svg>
