<svg xmlns="http://www.w3.org/2000/svg" width="11" height="16" viewBox="0 0 11 16">
  <path id="location-white" d="M5.576,16a.456.456,0,0,1-.389-.222L.821,8.583A5.708,5.708,0,0,1,0,5.625,5.57,5.57,0,0,1,5.5,0,5.57,5.57,0,0,1,11,5.625a5.715,5.715,0,0,1-.776,2.882L5.97,15.772A.456.456,0,0,1,5.58,16ZM.911,5.625A4.761,4.761,0,0,0,1.6,8.089l3.969,6.542L9.438,8.026a4.764,4.764,0,0,0,.649-2.4A4.65,4.65,0,0,0,5.5.931,4.652,4.652,0,0,0,.911,5.625Zm1.839,0A2.785,2.785,0,0,1,5.5,2.812,2.785,2.785,0,0,1,8.25,5.625a2.751,2.751,0,1,1-5.5,0Zm.911,0A1.838,1.838,0,1,0,5.5,3.744,1.862,1.862,0,0,0,3.661,5.625Z" fill="#fff"/>
</svg>
