<svg xmlns="http://www.w3.org/2000/svg" width="24" height="23" viewBox="0 0 24 23">
  <g id="newsletter-icon" transform="translate(0 0)">
    <path id="Path_21368" data-name="Path 21368" d="M20.5,20a.767.767,0,0,1-.242-.04L.508,13.21A.75.75,0,0,1,.4,11.835L22.9.085a.751.751,0,0,1,1.09.776l-2.75,18.5A.751.751,0,0,1,20.5,20ZM2.646,12.355,19.89,18.249,22.291,2.1Z" fill="#ff2c2c"/>
    <path id="Path_21369" data-name="Path 21369" d="M9.5,23a.75.75,0,0,1-.75-.75V15.5a.755.755,0,0,1,.2-.512L22.7.238a.751.751,0,0,1,1.1,1.024L10.25,15.8v4.168l2.5-3.407a.75.75,0,1,1,1.209.889L10.105,22.7A.755.755,0,0,1,9.5,23Z" fill="#ff2c2c"/>
  </g>
</svg>
