<svg xmlns="http://www.w3.org/2000/svg" width="15" height="15" viewBox="0 0 15 15">
  <g id="remove" transform="translate(-0.039)">
    <path id="Path_32794" data-name="Path 32794" d="M.81,15a.772.772,0,0,1-.545-1.318L13.721.226a.772.772,0,1,1,1.091,1.092L1.357,14.774A.774.774,0,0,1,.81,15Zm0,0" fill="#202020"/>
    <path id="Path_32795" data-name="Path 32795" d="M14.268,15a.766.766,0,0,1-.545-.226L.265,1.318A.772.772,0,0,1,1.357.226L14.813,13.682A.772.772,0,0,1,14.268,15Zm0,0" fill="#202020"/>
  </g>
</svg>
