<svg xmlns="http://www.w3.org/2000/svg" width="30" height="30" viewBox="0 0 30 30">
  <path id="s1" d="M3140.469,3657a.469.469,0,0,1-.469-.469v-29.062a.469.469,0,0,1,.469-.469h29.062a.469.469,0,0,1,.469.469v29.062a.469.469,0,0,1-.469.469Zm.468-.937h28.125v-28.125h-28.125Zm15-1.406a.469.469,0,0,1-.469-.469v-11.25a.469.469,0,0,1,.469-.468h11.25a.468.468,0,0,1,.468.468v11.25a.469.469,0,0,1-.468.469Zm8.3-5.293-4.356,4.356h6.837v-9.649l-9.649,9.649h1.487l5.019-5.019Zm-7.831,3.693,9.65-9.649h-1.487l-5.488,5.487-.663-.663,4.824-4.825h-6.837Zm-13.594,1.6a.469.469,0,0,1-.469-.469v-11.25a.468.468,0,0,1,.469-.468h11.25a.469.469,0,0,1,.469.468v11.25a.469.469,0,0,1-.469.469Zm.469-.937h10.313v-10.312h-10.312Zm12.656-12.187a.469.469,0,0,1-.469-.469v-11.25a.469.469,0,0,1,.469-.469h11.25a.468.468,0,0,1,.468.469v11.25a.469.469,0,0,1-.468.469Zm.469-.937h10.312v-10.312h-10.312Zm-13.594.938a.469.469,0,0,1-.469-.469v-11.25a.469.469,0,0,1,.469-.469h11.25a.469.469,0,0,1,.469.469v11.25a.469.469,0,0,1-.469.469Zm8.3-5.293-4.356,4.356h6.837v-9.65l-9.65,9.65h1.487l5.019-5.019Zm-7.831,3.693,9.649-9.649h-1.487l-5.488,5.488-.663-.663,4.824-4.825h-6.837Z" transform="translate(-3140 -3627)" fill="#fff"/>
</svg>
