<svg xmlns="http://www.w3.org/2000/svg" width="29.341" height="30" viewBox="0 0 29.341 30">
  <path id="s2" d="M.952,30A.953.953,0,0,1,0,29.048V27.9a.953.953,0,0,1,.952-.952h.3V16.724a.427.427,0,0,1,.854,0V26.945H3.57V2.741a.425.425,0,0,1,0-.05s0-.009,0-.013,0-.025.007-.037l0-.013q.005-.019.012-.038l0-.009a.415.415,0,0,1,.021-.045v0a.422.422,0,0,1,.024-.038l.009-.011.023-.027.01-.011a.425.425,0,0,1,.034-.032h0a.437.437,0,0,1,.04-.029l0,0,.007,0,.034-.019.011-.005.043-.017h0a.426.426,0,0,1,.049-.012l.011,0,.036,0H25.374a.427.427,0,0,1,.4.425v24.2h1.46V16.722a.427.427,0,1,1,.854,0V26.945h.3a.953.953,0,0,1,.951.952v1.151a.953.953,0,0,1-.952.952Zm-.1-2.1v1.151a.1.1,0,0,0,.1.1H28.389a.1.1,0,0,0,.1-.1V27.9a.1.1,0,0,0-.1-.1H.952A.1.1,0,0,0,.854,27.9Zm3.57-.951H5l5.37-2.007V6.236L4.424,3.416ZM18.972,6.236v18.7l5.37,2.007h.574V3.416Zm-8.195-.751a.752.752,0,0,1,.445.677V25.018a.758.758,0,0,1-.512.7L7.436,26.945H21.9l-3.274-1.224a.758.758,0,0,1-.512-.7V6.162a.752.752,0,0,1,.445-.677l4.884-2.317H5.893ZM23.333,25.414,20.352,24.23a.492.492,0,0,1-.314-.457V16.251a.515.515,0,0,1,.517-.5l2.978-.03a.509.509,0,0,1,.519.5V24.94a.526.526,0,0,1-.719.474ZM20.891,16.6v6.927l2.307.916V16.575ZM5.288,24.94V16.217a.507.507,0,0,1,.514-.5l2.983.03a.515.515,0,0,1,.517.5v7.521a.492.492,0,0,1-.314.457L6.006,25.414a.526.526,0,0,1-.719-.474Zm.854-.5,2.307-.916V16.6l-2.307-.023Zm21.09-9.751V1.1A.251.251,0,0,0,26.98.854H2.361A.251.251,0,0,0,2.11,1.1V14.668a.427.427,0,0,1-.854,0V1.1A1.106,1.106,0,0,1,2.361,0H26.98a1.106,1.106,0,0,1,1.1,1.1V14.69a.427.427,0,1,1-.854,0ZM5.8,15.114a.508.508,0,0,1-.514-.5V5.961a.526.526,0,0,1,.758-.456L9.027,7a.491.491,0,0,1,.275.44v7.155a.514.514,0,0,1-.519.5l-2.978.019Zm.34-.856,2.307-.015V7.662L6.141,6.508Zm17.392.856L20.556,15.1a.514.514,0,0,1-.519-.5V7.437A.49.49,0,0,1,20.312,7l2.981-1.491a.526.526,0,0,1,.758.456v8.653a.508.508,0,0,1-.514.5ZM20.891,7.662v6.582l2.307.015V6.508Z" fill="#fff"/>
</svg>
