<svg xmlns="http://www.w3.org/2000/svg" width="30.205" height="30" viewBox="0 0 30.205 30">
  <path id="s3" d="M29.746,8.74,16.681,8.375v-4.9a1.748,1.748,0,0,0-1.745-1.745H1.746A1.748,1.748,0,0,0,0,3.479V29.989a1.748,1.748,0,0,0,1.745,1.745h13.19a1.747,1.747,0,0,0,1.745-1.745V13.927l13.067-.418a.472.472,0,0,0,.457-.472V9.212a.472.472,0,0,0-.459-.472ZM15.737,29.989a.8.8,0,0,1-.8.8H1.746a.8.8,0,0,1-.8-.8V3.479a.8.8,0,0,1,.8-.8h13.19a.8.8,0,0,1,.8.8v4.87L12.9,8.27l.013-.008a5.414,5.414,0,1,0,.013,5.791l-.008,0,2.822-.09V29.989Zm-9.4-16.724a3.3,3.3,0,0,0,2.291.918l.106,0,3-.1a4.47,4.47,0,1,1-.011-5.848L8.728,8.153a3.326,3.326,0,0,0-2.4.925,2.86,2.86,0,0,0,.006,4.186Zm22.928-.684L8.7,13.238a2.357,2.357,0,0,1-1.71-.651,1.917,1.917,0,0,1-.005-2.831A2.374,2.374,0,0,1,8.634,9.1H8.7l20.559.574ZM8.341,18.653a5.387,5.387,0,1,0,5.387,5.387A5.393,5.393,0,0,0,8.341,18.653Zm0,9.83a4.443,4.443,0,1,1,4.443-4.443A4.448,4.448,0,0,1,8.341,28.483Zm1.932-4.578a.472.472,0,0,1-.667.667,1.791,1.791,0,0,0-2.529,0,.472.472,0,0,1-.667-.667,2.736,2.736,0,0,1,3.864,0Zm1.27-1.271a.472.472,0,0,1-.667.667,3.589,3.589,0,0,0-5.07,0,.472.472,0,0,1-.667-.667A4.534,4.534,0,0,1,11.543,22.634Zm-3.2,2.484a1.185,1.185,0,1,0,.839.347,1.179,1.179,0,0,0-.839-.347ZM8.263,26.3a.077.077,0,0,1,.023-.055.079.079,0,0,1,.11,0,.079.079,0,0,1,0,.11.079.079,0,0,1-.11,0A.077.077,0,0,1,8.263,26.3Z" transform="translate(0 -1.734)" fill="#fff"/>
</svg>
