<svg xmlns="http://www.w3.org/2000/svg" width="30.001" height="30" viewBox="0 0 30.001 30">
  <path id="s5" d="M3151.418,3657a.515.515,0,0,1-.515-.515v-1.013h-10.388a.515.515,0,1,1,0-1.03h4.01v-25.4a.515.515,0,0,1,.515-.515h5.863v-1.013a.516.516,0,0,1,.573-.512l13.541,1.529a.515.515,0,0,1,.458.511v25.4h4.011a.515.515,0,0,1,0,1.03h-4.5L3151.477,3657a.429.429,0,0,1-.053,0Zm.515-1.09,12.511-1.413V3629.5l-12.511-1.413Zm-4.023-1.468h2.992v-22.528h-2.992Zm-2.355,0h1.325V3631.4a.515.515,0,0,1,.515-.515h3.508v-1.324h-5.347ZM3152.62,3642a1.533,1.533,0,1,1,1.533,1.533A1.533,1.533,0,0,1,3152.62,3642Zm1.03,0a.5.5,0,1,0,.5-.5A.5.5,0,0,0,3153.651,3642Z" transform="translate(-3140 -3627)" fill="#fff"/>
</svg>
