<svg xmlns="http://www.w3.org/2000/svg" width="28.064" height="30" viewBox="0 0 28.064 30">
  <path id="s6" d="M.484,30A.484.484,0,0,1,0,29.516V14.032a14.032,14.032,0,1,1,28.064,0V29.516A.484.484,0,0,1,27.58,30Zm22.258-.968H27.1v-15a13.064,13.064,0,1,0-26.129,0v15H5.322v-8.71H4.355a.484.484,0,0,1-.484-.484V17.419a.484.484,0,0,1,.484-.484H23.709a.484.484,0,0,1,.484.484v2.419a.484.484,0,0,1-.484.484h-.968Zm-16.451,0H21.774v-.968H6.29Zm0-1.935H21.774v-.968H6.29Zm0-1.935H21.774v-.968H6.29Zm0-1.935H21.774v-.968H6.29Zm0-1.935H21.774v-.968H6.29ZM4.839,19.355H23.225V17.9H4.839Zm18.871,6.29a.484.484,0,0,1-.484-.484v-2.9a.484.484,0,0,1,.484-.484h2.419a.484.484,0,0,1,.484.484v2.9a.484.484,0,0,1-.484.484Zm.484-.968h1.452V22.742H24.193Zm-22.258.968a.484.484,0,0,1-.484-.484v-2.9a.484.484,0,0,1,.484-.484H4.355a.484.484,0,0,1,.484.484v2.9a.484.484,0,0,1-.484.484Zm.484-.968H3.871V22.742H2.419Zm7.742-10.161a.484.484,0,0,1-.484-.484V10.162a.484.484,0,0,1,.484-.484H17.9a.484.484,0,0,1,.484.484v3.871a.484.484,0,0,1-.484.484Zm4.355-.968h2.9v-2.9h-2.9Zm-3.871,0h2.9v-2.9h-2.9Z" fill="#fff"/>
</svg>
