<svg xmlns="http://www.w3.org/2000/svg" width="24" height="30" viewBox="0 0 24 30">
  <path id="service-content-icon3" d="M5163.333,3657a3.375,3.375,0,0,1-3.333-3.409v-23.182a3.375,3.375,0,0,1,3.333-3.409h17.333a3.376,3.376,0,0,1,3.334,3.409v23.182a3.376,3.376,0,0,1-3.334,3.409Zm-2-26.591v23.182a2.026,2.026,0,0,0,2,2.046h17.333a2.026,2.026,0,0,0,2-2.046v-23.182a2.026,2.026,0,0,0-2-2.045h-17.333A2.026,2.026,0,0,0,5161.333,3630.409Zm9.333,22.5a1.334,1.334,0,1,1,1.333,1.364A1.349,1.349,0,0,1,5170.667,3652.909Zm-.667-21.818a.682.682,0,0,1,0-1.364h4a.682.682,0,0,1,0,1.364Z" transform="translate(-5160 -3627)" fill="#fff"/>
</svg>
