<svg xmlns="http://www.w3.org/2000/svg" width="34.286" height="30" viewBox="0 0 34.286 30">
  <path id="service-content-icon2" d="M-2389.322,3657a2.682,2.682,0,0,1-2.679-2.679s0,0,0,0,0-.011,0-.017,0-.03,0-.044,0-.012,0-.019a.431.431,0,0,1,.009-.043l0-.017c0-.016.01-.032.016-.048l0-.008,0-.008v0l3.172-7.93v-16.72a2.465,2.465,0,0,1,2.462-2.462h22.933a2.465,2.465,0,0,1,2.462,2.462v16.72l3.172,7.93v0l0,.008,0,.008c.006.016.011.031.016.048l0,.017a.436.436,0,0,1,.009.043c0,.006,0,.012,0,.019s0,.03,0,.044,0,.011,0,.017,0,0,0,0a2.682,2.682,0,0,1-2.679,2.679Zm0-1.072h28.928a1.61,1.61,0,0,0,1.515-1.071h-31.959A1.61,1.61,0,0,0-2389.322,3655.929Zm15.872-6.428a3.014,3.014,0,0,1,3.077,2.427l.266,1.858h11.065l-2.786-6.964h-26.06l-2.786,6.964h11.065l.265-1.858a3.014,3.014,0,0,1,3.077-2.427Zm-4.832,2.579-.244,1.707h7.336l-.244-1.707a1.944,1.944,0,0,0-2.017-1.507h-2.815A1.944,1.944,0,0,0-2378.281,3652.079Zm-9.433-22.617v16.288H-2362v-16.288a1.392,1.392,0,0,0-1.391-1.391h-22.933A1.392,1.392,0,0,0-2387.715,3629.462Zm2.776,15.217a1.706,1.706,0,0,1-1.7-1.7v-12.127a1.706,1.706,0,0,1,1.7-1.7h20.163a1.706,1.706,0,0,1,1.7,1.7v12.127a1.706,1.706,0,0,1-1.7,1.7Zm-.633-13.832v12.127a.633.633,0,0,0,.633.633h20.163a.633.633,0,0,0,.633-.633v-12.127a.633.633,0,0,0-.633-.633h-20.163A.633.633,0,0,0-2385.572,3630.847Z" transform="translate(2392 -3627)" fill="#fff"/>
</svg>
