<svg xmlns="http://www.w3.org/2000/svg" width="32.337" height="30" viewBox="0 0 32.337 30">
  <path id="service-content-icon" d="M-2385.621,3657a.474.474,0,0,1-.474-.474.474.474,0,0,1,.474-.474h3.568a2.19,2.19,0,0,0,1.96-1.478l.57-2h-10.109a2.371,2.371,0,0,1-2.368-2.368v-20.842a2.371,2.371,0,0,1,2.368-2.368h27.6a2.371,2.371,0,0,1,2.368,2.368v20.842a2.371,2.371,0,0,1-2.368,2.368h-10.109l.57,2a2.189,2.189,0,0,0,1.96,1.478h3.568a.474.474,0,0,1,.474.474.474.474,0,0,1-.474.474Zm6.439-2.165a2.888,2.888,0,0,1-.727,1.218h8.155a2.893,2.893,0,0,1-.727-1.218l-.645-2.256h-5.412Zm-11.871-4.624a1.423,1.423,0,0,0,1.421,1.421h27.6a1.423,1.423,0,0,0,1.421-1.421V3646.9h-30.442Zm0-20.842v16.579h30.442v-16.579a1.423,1.423,0,0,0-1.421-1.421h-27.6A1.423,1.423,0,0,0-2391.052,3629.369Zm13.8,19.895a1.423,1.423,0,0,1,1.421-1.421,1.423,1.423,0,0,1,1.421,1.421,1.423,1.423,0,0,1-1.421,1.421A1.423,1.423,0,0,1-2377.252,3649.263Zm.947,0a.474.474,0,0,0,.474.474.474.474,0,0,0,.474-.474.474.474,0,0,0-.474-.474A.474.474,0,0,0-2376.3,3649.263Zm-13.326-4.263a.474.474,0,0,1-.474-.474V3637.9a.474.474,0,0,1,.474-.474.474.474,0,0,1,.474.474v6.158h26.653v-14.21h-26.653V3636a.474.474,0,0,1-.474.474.474.474,0,0,1-.474-.474v-6.632a.474.474,0,0,1,.474-.474h27.6a.474.474,0,0,1,.474.474v15.158a.473.473,0,0,1-.474.474Z" transform="translate(2392 -3627)" fill="#fff"/>
</svg>
