<svg xmlns="http://www.w3.org/2000/svg" width="30" height="30" viewBox="0 0 30 30">
  <path id="service-icon4" d="M5.1,30a2.423,2.423,0,0,1-2.4-2.119L1.015,14.441A1.448,1.448,0,0,1,0,13.064V12.1a1.454,1.454,0,0,1,1.451-1.452h9.193V4.355a2.423,2.423,0,0,1,2.42-2.42h7.984l.726-.968A2.431,2.431,0,0,1,23.709,0H27.58A2.422,2.422,0,0,1,30,2.42V14.032a2.422,2.422,0,0,1-2.42,2.42H18.089L16.66,27.881A2.423,2.423,0,0,1,14.259,30ZM3.387,16.452a2.422,2.422,0,0,1,2.419,2.419v5.807a2.415,2.415,0,0,1-2.236,2.4l.085.682A1.454,1.454,0,0,0,5.1,29.032h9.163A1.454,1.454,0,0,0,15.7,27.761l.085-.682a2.415,2.415,0,0,1-2.237-2.4V18.871a2.422,2.422,0,0,1,2.42-2.419h.968c.058,0,.117.01.176.015l.244-1.951H2l.244,1.951c.059,0,.118-.015.176-.015Zm11.129,2.419v5.807A1.451,1.451,0,0,0,15.9,26.123l1.087-8.7c-.018,0-.038-.005-.056-.005h-.968A1.454,1.454,0,0,0,14.516,18.871ZM2.363,17.425l1.087,8.7a1.451,1.451,0,0,0,1.388-1.445V18.871a1.453,1.453,0,0,0-1.451-1.451H2.42C2.4,17.419,2.382,17.424,2.363,17.425Zm9.25-6.78H17.9A1.453,1.453,0,0,1,19.355,12.1v.968a1.448,1.448,0,0,1-1.015,1.377l-.13,1.043H27.58a1.454,1.454,0,0,0,1.452-1.452V4.839H11.613ZM.968,12.1v.968a.484.484,0,0,0,.484.484H17.9a.484.484,0,0,0,.484-.484V12.1a.484.484,0,0,0-.484-.484H1.451A.484.484,0,0,0,.968,12.1ZM11.7,3.871h17.33V2.42A1.454,1.454,0,0,0,27.58.968H23.709a1.457,1.457,0,0,0-1.161.581L21.532,2.9H13.064A1.449,1.449,0,0,0,11.7,3.871ZM9.193,27.1a2.422,2.422,0,0,1-2.419-2.419V18.871a2.422,2.422,0,0,1,2.419-2.419h.968a2.422,2.422,0,0,1,2.42,2.419v5.807a2.422,2.422,0,0,1-2.42,2.419ZM7.742,18.871v5.807a1.453,1.453,0,0,0,1.451,1.451h.968a1.454,1.454,0,0,0,1.452-1.451V18.871a1.454,1.454,0,0,0-1.452-1.451H9.193A1.453,1.453,0,0,0,7.742,18.871ZM18.67,22.742l2.278-2.278.684.684-1.109,1.11h2.219a1.453,1.453,0,0,0,1.452-1.451V19.355h.968v1.452a2.422,2.422,0,0,1-2.42,2.419H20.523l1.109,1.11-.684.684Zm5.523-4.355v-.968h.968v.968Zm2.9-3.871v-.968h.968v.968Zm-1.935,0v-.968h.968v.968Zm-1.936,0v-.968h.968v.968ZM3.387,9.677V8.71h.968v.968Zm0-1.935V6.29A2.422,2.422,0,0,1,5.806,3.871H8.026l-1.11-1.11L7.6,2.077,9.878,4.355,7.6,6.632l-.684-.684,1.11-1.11H5.806A1.454,1.454,0,0,0,4.355,6.29V7.742ZM27.1,2.9V1.935h.968V2.9Zm-1.935,0V1.935h.968V2.9Zm-1.936,0V1.935h.968V2.9Z" fill="#fff"/>
</svg>
