<svg xmlns="http://www.w3.org/2000/svg" width="20" height="30" viewBox="0 0 20 30">
  <path id="service-icon2" d="M5162.942,3657a2.925,2.925,0,0,1-2.942-2.9V3629.9a2.926,2.926,0,0,1,2.942-2.9h14.117a2.925,2.925,0,0,1,2.941,2.9V3654.1a2.925,2.925,0,0,1-2.941,2.9Zm-1.766-27.1V3654.1a1.755,1.755,0,0,0,1.766,1.741h14.117a1.755,1.755,0,0,0,1.765-1.741V3629.9a1.757,1.757,0,0,0-1.765-1.743h-1.871l-.494,2.437a.586.586,0,0,1-.576.468h-8.235a.588.588,0,0,1-.577-.468l-.494-2.437h-1.87A1.757,1.757,0,0,0,5161.176,3629.9Zm5.188,0h7.271l.354-1.743h-7.978Zm1.872,24.773a.581.581,0,1,1,0-1.161h.586a.581.581,0,1,1,0,1.161Zm-5.294,0a.581.581,0,1,1,0-1.161h3.528a.581.581,0,1,1,0,1.161Z" transform="translate(-5160 -3627)" fill="#fff"/>
</svg>
