<svg xmlns="http://www.w3.org/2000/svg" width="23" height="30" viewBox="0 0 23 30">
  <path id="service-icon1" d="M7.028,30C5.29,30,0,30,0,26.25V4.375C0,1.353,3.53,0,7.028,0h5.111c3.5,0,7.028,1.353,7.028,4.375V9.511a.639.639,0,0,1-1.278,0V6.25H1.278V25H12.139a.625.625,0,1,1,0,1.25H1.278c0,1.705,1.827,2.5,5.75,2.5h5.111c1.03,0,4.162,0,5.3-1.249a.648.648,0,0,1,.9-.053.614.614,0,0,1,.054.882C17.03,29.827,14.172,30,12.139,30ZM1.278,4.375V5H17.889V4.375c0-2.467-3.615-3.125-5.75-3.125H7.028C4.893,1.25,1.278,1.907,1.278,4.375Zm17.889,21.25V23.75H15.333v1.875a.639.639,0,0,1-1.278,0v-1.99a1.875,1.875,0,0,1-1.278-1.76.639.639,0,0,1-1.278,0v-5a.639.639,0,0,1,1.278,0v-1.25a4.277,4.277,0,0,1,.9-2.608l-.716-.7a.616.616,0,0,1,0-.884.649.649,0,0,1,.9,0l.716.7a4.463,4.463,0,0,1,5.332,0l.716-.7a.649.649,0,0,1,.9,0,.616.616,0,0,1,0,.884l-.716.7a4.267,4.267,0,0,1,.9,2.608v1.25a.639.639,0,0,1,1.278,0v5a.639.639,0,0,1-1.278,0,1.875,1.875,0,0,1-1.278,1.76v1.99a.639.639,0,0,1-1.278,0Zm-5.111-3.75a.633.633,0,0,0,.639.625h5.111a.633.633,0,0,0,.639-.625V16.25H14.055ZM14.119,15h6.26a3.209,3.209,0,0,0-6.26,0ZM8.306,3.75a.625.625,0,1,1,0-1.25h2.556a.625.625,0,1,1,0,1.25Z" fill="#fff"/>
</svg>
