<svg xmlns="http://www.w3.org/2000/svg" width="13.846" height="12" viewBox="0 0 13.846 12">
  <path id="share" d="M4.462,24a.474.474,0,0,1-.106-.012A.462.462,0,0,1,4,23.539c0-4.194.531-7.682,6.923-7.84V12.462a.461.461,0,0,1,.775-.339l6,5.538a.462.462,0,0,1,0,.678l-6,5.538a.461.461,0,0,1-.775-.339V20.313c-4.385.1-5.194,1.723-6.049,3.432A.461.461,0,0,1,4.462,24Zm6.923-4.615a.461.461,0,0,1,.462.462v2.638L16.7,18l-4.858-4.484v2.638a.461.461,0,0,1-.462.462c-5.1,0-6.2,1.972-6.412,5.121C5.928,20.453,7.557,19.385,11.384,19.385Z" transform="translate(-4 -12.001)" fill="#202020"/>
</svg>
