<svg xmlns="http://www.w3.org/2000/svg" width="50" height="50" viewBox="0 0 50 50">
  <path id="statistic-bg" d="M7797.771,3673.253a22.579,22.579,0,0,1,4.81-44.64H7817.1V3627H7830v17.742h-5.794a22.287,22.287,0,0,1,.6,2.465,4.01,4.01,0,0,1,0,7.974,22.628,22.628,0,0,1-19.054,18.367,4.012,4.012,0,0,1-7.977-.294Zm4,2.134a2.414,2.414,0,0,0,2.288-1.667c-.49.032-.983.054-1.481.054a22.594,22.594,0,0,1-3.146-.224A2.417,2.417,0,0,0,7801.774,3675.387Zm-20.161-24.194a20.968,20.968,0,1,0,40.907-6.451h-2.611a27,27,0,0,1,.414,4.839c0,7.531-5.128,15.323-13.71,15.323a13.718,13.718,0,0,1-13.66-12.722,9.684,9.684,0,0,1,9.627-10.665H7817.1v-11.29H7802.58A20.992,20.992,0,0,0,7781.613,3651.193Zm25,12.1c7.572,0,12.1-6.971,12.1-13.71a24.925,24.925,0,0,0-.444-4.839H7817.1v-1.613h-9.179a9.67,9.67,0,0,1-9.85,16.618A12.054,12.054,0,0,0,7806.612,3663.29Zm-3.226-8.986v4.912a8.024,8.024,0,0,0,4.293-1.783l-3.472-3.472A3.152,3.152,0,0,1,7803.387,3654.3Zm-5.906,3.129a8.017,8.017,0,0,0,4.293,1.783V3654.3a3.212,3.212,0,0,1-.822-.343Zm7.868-4.612,3.472,3.472A8.024,8.024,0,0,0,7810.6,3652h-1.572v-1.613h1.572a8.023,8.023,0,0,0-1.783-4.293l-3.472,3.472a3.152,3.152,0,0,1,.343.822h1.728V3652h-1.728A3.235,3.235,0,0,1,7805.349,3652.821Zm-10.791-.8a8.029,8.029,0,0,0,1.782,4.277l3.472-3.472a3.19,3.19,0,0,1-.343-.822h-4.912A.1.1,0,0,0,7794.558,3652.016Zm30.6-.823a22.8,22.8,0,0,1-.117,2.307,2.4,2.4,0,0,0-.013-4.619A23.033,23.033,0,0,1,7825.161,3651.193Zm-24.194,0a1.613,1.613,0,1,0,1.613-1.613A1.614,1.614,0,0,0,7800.967,3651.193Zm-6.411-.806h4.912a3.232,3.232,0,0,1,.343-.822l-3.472-3.472A8.027,8.027,0,0,0,7794.557,3650.386Zm8.83-2.3a3.219,3.219,0,0,1,.822.343l3.472-3.472a8.018,8.018,0,0,0-4.293-1.783Zm-5.906-3.129,3.472,3.472a3.137,3.137,0,0,1,.822-.343v-4.912A8.022,8.022,0,0,0,7797.48,3644.953Zm29.293-3.437v1.613h1.613v-14.516h-1.613V3639.9h-1.613v-11.291h-6.452v14.516h6.452v-1.613Zm-29.839,26.613v-1.613h1.613v1.613Zm-6.452-11.29v-1.613h1.613v1.613Zm-6.452-5.645v-1.613h1.613v1.613Zm4.839-8.871v-1.613h1.613v1.613Zm14.516-4.032v-1.613H7805v1.613Zm10.484-4.839v-1.613h1.613v1.613Z" transform="translate(-7780 -3627)"/>
</svg>
