<svg xmlns="http://www.w3.org/2000/svg" width="57" height="45" viewBox="0 0 57 45">
  <path id="step1" d="M-2381.957,3672a.84.84,0,0,1-.835-.844.84.84,0,0,1,.835-.845h42.039a3.271,3.271,0,0,0,3.248-3.285v-27.57a3.271,3.271,0,0,0-3.248-3.285h-7.227a4.889,4.889,0,0,1-4.387-2.726l-1.48-2.955a3.228,3.228,0,0,0-2.9-1.8h-15.247a3.225,3.225,0,0,0-2.912,1.831l-1.406,2.879a4.883,4.883,0,0,1-4.41,2.771h-7.2a3.271,3.271,0,0,0-3.248,3.285v27.57a3.271,3.271,0,0,0,3.248,3.285h1.618a.84.84,0,0,1,.835.845.84.84,0,0,1-.835.844h-1.618a4.952,4.952,0,0,1-4.918-4.974v-27.57a4.956,4.956,0,0,1,4.648-4.967v-1.6a1.6,1.6,0,0,1,1.584-1.6h4.583a1.6,1.6,0,0,1,1.584,1.6v1.579a3.225,3.225,0,0,0,2.63-1.817l1.406-2.879a4.882,4.882,0,0,1,4.409-2.771h15.247a4.889,4.889,0,0,1,4.387,2.726l1.48,2.954a3.229,3.229,0,0,0,2.9,1.8h7.226a4.952,4.952,0,0,1,4.918,4.974v27.57a4.952,4.952,0,0,1-4.918,4.974Zm-3.726-37.519h4.411v-1.505h-4.411Zm8,18.151a14.276,14.276,0,0,1,14.178-14.34,14.276,14.276,0,0,1,14.178,14.34,14.276,14.276,0,0,1-14.178,14.34A14.276,14.276,0,0,1-2377.678,3652.633Zm1.67,0a12.6,12.6,0,0,0,12.508,12.651,12.6,12.6,0,0,0,12.508-12.651,12.6,12.6,0,0,0-12.508-12.651A12.6,12.6,0,0,0-2376.009,3652.633Zm2.238,0a10.341,10.341,0,0,1,10.27-10.387,10.161,10.161,0,0,1,7.1,2.883.851.851,0,0,1,.026,1.194.829.829,0,0,1-1.181.026,8.508,8.508,0,0,0-5.946-2.414,8.66,8.66,0,0,0-8.6,8.7,8.66,8.66,0,0,0,8.6,8.7,8.659,8.659,0,0,0,8.6-8.7,8.725,8.725,0,0,0-.713-3.475.848.848,0,0,1,.431-1.112.831.831,0,0,1,1.1.437,10.42,10.42,0,0,1,.853,4.15,10.341,10.341,0,0,1-10.27,10.388A10.341,10.341,0,0,1-2373.77,3652.633Zm-14.321-11.584a2.743,2.743,0,0,1,2.725-2.756,2.743,2.743,0,0,1,2.725,2.756,2.744,2.744,0,0,1-2.725,2.756A2.744,2.744,0,0,1-2388.092,3641.048Zm1.67,0a1.062,1.062,0,0,0,1.055,1.067,1.062,1.062,0,0,0,1.055-1.067,1.062,1.062,0,0,0-1.055-1.067A1.062,1.062,0,0,0-2386.422,3641.048Zm44.517-.229a.839.839,0,0,1-.835-.844.839.839,0,0,1,.835-.844h1.314a.84.84,0,0,1,.835.844.84.84,0,0,1-.835.844Zm-25.732-7.843a.84.84,0,0,1-.835-.845.84.84,0,0,1,.835-.844h8.273a.84.84,0,0,1,.835.844.84.84,0,0,1-.835.845Z" transform="translate(2392 -3627)" fill="#f92"/>
</svg>
