<svg xmlns="http://www.w3.org/2000/svg" width="45.3" height="45.3" viewBox="0 0 45.3 45.3">
  <path id="step3" d="M-2366.023,3665.523h-22.3a3.666,3.666,0,0,1-3.682-3.682v-28.432a3.666,3.666,0,0,1,3.682-3.682h3.819a3.373,3.373,0,0,1,3.34-2.727,3.429,3.429,0,0,1,3.341,2.727h16.636a3.429,3.429,0,0,1,3.341-2.727,3.43,3.43,0,0,1,3.341,2.727h3.818a3.666,3.666,0,0,1,3.681,3.682v28.432a3.836,3.836,0,0,1-1.364,2.863,9.082,9.082,0,0,1-8.932,7.3A9.167,9.167,0,0,1-2366.023,3665.523Zm.955-2.659a7.769,7.769,0,0,0,7.773,7.772,7.769,7.769,0,0,0,7.772-7.772,7.769,7.769,0,0,0-7.772-7.772A7.769,7.769,0,0,0-2365.068,3662.864Zm-25.568-1.022a2.357,2.357,0,0,0,2.318,2.386v.068h22.023a9.264,9.264,0,0,1-.136-1.364,9.137,9.137,0,0,1,9.136-9.136,9.143,9.143,0,0,1,8.932,7.159v-22.432h-42.272Zm0-28.432v3.682h42.272v-3.682a2.3,2.3,0,0,0-2.318-2.318h-3.75a3.429,3.429,0,0,1-3.341,2.727,3.429,3.429,0,0,1-3.341-2.727h-16.7a3.429,3.429,0,0,1-3.341,2.727,3.428,3.428,0,0,1-3.34-2.727h-3.819A2.3,2.3,0,0,0-2390.636,3633.409Zm30.75-3a2.009,2.009,0,0,0,2.045,2.046,2.009,2.009,0,0,0,2.046-2.046,2.009,2.009,0,0,0-2.046-2.045A2.051,2.051,0,0,0-2359.886,3630.409Zm-23.318,0a2.009,2.009,0,0,0,2.045,2.046,2.009,2.009,0,0,0,2.046-2.046,2.009,2.009,0,0,0-2.046-2.045A2.008,2.008,0,0,0-2383.2,3630.409Zm23.386,36.205-2.591-3.613a.721.721,0,0,1,.136-.955.733.733,0,0,1,.954.137l2.114,3,6-6.136a.741.741,0,0,1,1.022,0,.658.658,0,0,1,0,.954l-6.614,6.682a.773.773,0,0,1-.545.205A.692.692,0,0,1-2359.818,3666.614Zm-19.7-6.2a.645.645,0,0,1-.682-.682v-3.682a.645.645,0,0,1,.682-.682h3.682a.644.644,0,0,1,.682.682v3.682a.644.644,0,0,1-.682.682Zm.682-1.364h2.318v-2.319h-2.318Zm-8.659,1.364a.644.644,0,0,1-.682-.682v-3.682a.644.644,0,0,1,.682-.682h3.682a.644.644,0,0,1,.682.682v3.682a.644.644,0,0,1-.682.682Zm.682-1.364h2.319v-2.319h-2.319Zm23.25-5.864a.733.733,0,0,1-.682-.682v-3.683a.644.644,0,0,1,.682-.682h3.682a.644.644,0,0,1,.682.682v3.683a.644.644,0,0,1-.682.682Zm.681-1.432h2.319v-2.318h-2.319Zm-8.658,1.364a.644.644,0,0,1-.682-.682v-3.682a.644.644,0,0,1,.682-.682h3.681a.683.683,0,0,1,.682.682v3.682a.644.644,0,0,1-.682.682Zm.682-1.3h2.318V3649.5h-2.318Zm-8.659,1.3a.644.644,0,0,1-.682-.682v-3.682a.645.645,0,0,1,.682-.682h3.682a.683.683,0,0,1,.682.682v3.682a.644.644,0,0,1-.682.682Zm.682-1.3h2.318V3649.5h-2.318Zm-8.659,1.3a.644.644,0,0,1-.682-.682v-3.682a.644.644,0,0,1,.682-.682h3.682a.684.684,0,0,1,.682.682v3.682a.644.644,0,0,1-.682.682Zm.682-1.3h2.319V3649.5h-2.319Zm31.227-5.932a.684.684,0,0,1-.682-.682v-3.682a.644.644,0,0,1,.682-.682h3.682a.644.644,0,0,1,.682.682v3.682a.644.644,0,0,1-.682.682Zm.682-1.364h2.319v-2.318h-2.319Zm-8.658,1.364a.683.683,0,0,1-.682-.682v-3.682a.644.644,0,0,1,.682-.682h3.682a.644.644,0,0,1,.682.682v3.682a.645.645,0,0,1-.682.682Zm.681-1.364h2.319v-2.318h-2.319Zm-8.658,1.364a.644.644,0,0,1-.682-.682v-3.682a.644.644,0,0,1,.682-.682h3.681a.683.683,0,0,1,.682.682v3.682a.644.644,0,0,1-.682.682Zm.682-1.364h2.318v-2.318h-2.318Zm-8.659,1.364a.645.645,0,0,1-.682-.682v-3.682a.644.644,0,0,1,.682-.682h3.682a.683.683,0,0,1,.682.682v3.682a.644.644,0,0,1-.682.682Zm.682-1.364h2.318v-2.318h-2.318Z" transform="translate(2392.15 -3626.851)" fill="#f92" stroke="#f92" stroke-width="0.3"/>
</svg>
