<svg xmlns="http://www.w3.org/2000/svg" width="54" height="45" viewBox="0 0 54 45">
  <path id="step4" d="M0,0V1.8H4.986a5.385,5.385,0,0,0-1.3,2.7H1.8A1.8,1.8,0,0,0,0,6.3v9.167l.295.766L3.4,24.3l.941,2.447A1.81,1.81,0,0,0,6.018,27.9H18v6.3A1.8,1.8,0,0,0,19.8,36H45.9a1.8,1.8,0,0,0,1.8-1.8V32.4h2.7V30.6H47.7V28.8h4.5V27H47.7V25.2h2.7V23.4H47.7V21.6h4.5V19.8H47.7V16.2a1.8,1.8,0,0,0,1.8-1.8V6.3a1.8,1.8,0,0,0-1.8-1.8H45.818a5.384,5.384,0,0,0-1.3-2.7H54V0ZM36.9,5.4A3.6,3.6,0,1,1,40.5,9,3.6,3.6,0,0,1,36.9,5.4ZM13.013,1.8H36.486a5.385,5.385,0,0,0-1.3,2.7H14.319A5.379,5.379,0,0,0,13.013,1.8ZM5.4,5.4A3.6,3.6,0,1,1,9,9,3.6,3.6,0,0,1,5.4,5.4Zm40.418.9H47.7v4.477l-2.678-.065-.043,1.8,2.722.066V14.4H18V26.1H6.018l-.693-1.8H14.4a1.8,1.8,0,0,0,1.8-1.8V16.2a1.8,1.8,0,0,0-1.8-1.8H1.8V12.535l2.678.065.043-1.8L1.8,10.734V6.3H3.681a5.394,5.394,0,0,0,10.638,0H35.181a5.393,5.393,0,0,0,10.637,0ZM19.8,16.2H45.9v3.6H37.8v1.8h8.1v1.8H41.4v1.8h4.5V27H37.8v1.8h8.1v1.8H41.4v1.8h4.5v1.8H19.8Zm-17.59,0H14.4v6.3H4.633ZM38.7,5.4a1.8,1.8,0,1,0,1.8-1.8A1.8,1.8,0,0,0,38.7,5.4Zm1.8-.9v0ZM7.2,5.4A1.8,1.8,0,1,0,9,3.6,1.8,1.8,0,0,0,7.2,5.4ZM9,4.5v0ZM52.2,23.4v1.8H54V23.4Zm0,7.2v1.8H54V30.6ZM18.9,37.8v1.8h1.8V37.8Zm-10.8,0v1.8h9V37.8Zm30.6,5.4V45h1.8V43.2Zm-10.8,0V45h9V43.2Z" transform="translate(54 45) rotate(180)" fill="#f92"/>
</svg>
