<svg xmlns="http://www.w3.org/2000/svg" width="45" height="45" viewBox="0 0 45 45">
  <path id="step2" d="M41.645,14.123V6.806A5.813,5.813,0,0,0,35.839,1H6.806A5.813,5.813,0,0,0,1,6.806V16.968a5.813,5.813,0,0,0,5.806,5.806H8.258V44.548A1.453,1.453,0,0,0,9.71,46H31.484a1.453,1.453,0,0,0,1.452-1.452V22.774h2.9V38.38a2.122,2.122,0,0,0,.267,1.031l3.1,5.581h0a1.96,1.96,0,0,0,3.426,0l3.1-5.581A2.127,2.127,0,0,0,46,38.38V19.145a5.084,5.084,0,0,0-4.355-5.023ZM31.484,44.548H9.71V22.774H31.484ZM6.806,21.323a4.359,4.359,0,0,1-4.355-4.355V6.806A4.359,4.359,0,0,1,6.806,2.452H35.839a4.359,4.359,0,0,1,4.355,4.355v7.316a5.084,5.084,0,0,0-4.355,5.023v2.177ZM37.395,38.742h7.049l-.806,1.452H38.2Zm-.1-1.452V24.226h2.9V37.29Zm4.355,0V24.226h2.9V37.29ZM37.29,22.774V21.323h7.258v1.452Zm4.073,21.513a.528.528,0,0,1-.888,0l-1.468-2.642H42.83Zm3.185-24.416H37.29v-.726a3.629,3.629,0,0,1,7.258,0ZM14.065,14.065h1.452v1.452H14.065Zm2.9,0h1.452v1.452H16.968Zm2.9,0h1.452v1.452H19.871Zm-5.806-2.9H28.581v1.452H14.065Zm2.9-1.452h-2.9V8.258h2.9Zm10.161,0h-8.71V8.258h8.71ZM12.613,8.258V9.71a1.453,1.453,0,0,0-1.452,1.452v1.452h1.452v1.452H9.71v-2.9A2.906,2.906,0,0,1,12.613,8.258Zm-4.355,0V9.71a1.453,1.453,0,0,0-1.452,1.452v1.452H8.258v1.452h-2.9v-2.9A2.906,2.906,0,0,1,8.258,8.258Zm21.774,0h2.9v2.9a2.906,2.906,0,0,1-2.9,2.9V12.613a1.453,1.453,0,0,0,1.452-1.452V9.71H30.032Zm4.355,5.806V12.613a1.453,1.453,0,0,0,1.452-1.452V9.71H34.387V8.258h2.9v2.9A2.906,2.906,0,0,1,34.387,14.065ZM14.065,27.129H12.613V25.677h1.452Zm14.516,0H15.516V25.677H28.581ZM15.516,32.935h-2.9V31.484h2.9Zm1.452-1.452H28.581v1.452H16.968Zm11.613-1.452H12.613V28.581H28.581Zm-8.71,5.806H12.613V34.387h7.258Zm-7.258,2.9V37.29h7.258v1.452Zm10.161-2.9h5.806V37.29H22.774Zm0,2.9h5.806v1.452H22.774Z" transform="translate(-1 -1)" fill="#f92"/>
</svg>
