<svg xmlns="http://www.w3.org/2000/svg" width="25.379" height="45" viewBox="0 0 25.379 45">
  <path id="top-title-bg" d="M7783.815,3672a3.786,3.786,0,0,1-3.751-2.979,3.657,3.657,0,0,1,1.35-3.45l9.895-9.806a4.831,4.831,0,0,1,3.406-1.4h4.331a3.681,3.681,0,0,0,3.083-1.673l2.974-4.349a.152.152,0,0,1,.278.086v20.042a3.533,3.533,0,0,1-3.532,3.532ZM7780,3658.148l11.573-11.706a3.584,3.584,0,0,0,1.035-2.519v-2.255a2.59,2.59,0,0,1,.938-1.994l4.981-4.12a1.261,1.261,0,0,0,.457-.972c.133-1.089-.633-1.432-1.42-1.432a14.184,14.184,0,0,0-9.92,3.947,8.355,8.355,0,0,0-2.472,5.967v3.6a4.121,4.121,0,0,1-1.242,2.946l-3.929,3.832v-23.058a3.381,3.381,0,0,1,3.379-3.381H7802a3.378,3.378,0,0,1,3.379,3.379v7.83l-6.745,5.926a.881.881,0,0,0-.3.684l.012.466a.588.588,0,0,0,.617.576l.337-.016a1.279,1.279,0,0,0,.778-.312l5.3-4.621v1.978l-4.8,4.155a2.158,2.158,0,0,1-1.411.525h-4.033a2.605,2.605,0,0,0-1.865.785L7780,3661.907Z" transform="translate(-7780.001 -3627)" fill="#21445a"/>
</svg>
