<svg xmlns="http://www.w3.org/2000/svg" width="16" height="16" viewBox="0 0 16 16">
  <path id="watch-white" d="M0,8a8,8,0,1,1,8,8A8.017,8.017,0,0,1,0,8ZM.937,8A7.063,7.063,0,1,0,8,.937,7.071,7.071,0,0,0,.937,8Zm6.594,5.625v-.937a.469.469,0,1,1,.937,0v.937a.469.469,0,1,1-.937,0Zm4.115-1.316a.469.469,0,1,1,.331.137A.469.469,0,0,1,11.646,12.309Zm-8.092-.331a.469.469,0,1,1,.469.469A.469.469,0,0,1,3.554,11.977Zm6.927-.834L7.669,8.331A.469.469,0,0,1,7.531,8V5.187a.469.469,0,0,1,.937,0V7.806l2.675,2.675a.469.469,0,0,1-.663.663Zm2.206-2.675a.469.469,0,1,1,0-.937h.937a.469.469,0,1,1,0,.937Zm-10.313,0a.469.469,0,0,1,0-.937h.938a.469.469,0,0,1,0,.937Zm9.134-4.446a.469.469,0,1,1,.469.469A.469.469,0,0,1,11.509,4.023Zm-7.818.331a.469.469,0,1,1,.331.137A.469.469,0,0,1,3.691,4.354Zm3.84-1.041V2.375a.469.469,0,0,1,.937,0v.938a.469.469,0,0,1-.937,0Z" fill="#fff"/>
</svg>
