<svg xmlns="http://www.w3.org/2000/svg" width="165" height="44.999" viewBox="0 0 165 44.999">
  <g id="logo" transform="translate(7179 3839)">
    <path id="Path_21185" data-name="Path 21185" d="M214.843,301.615v20.041a3.532,3.532,0,0,1-3.531,3.532H193.277a3.784,3.784,0,0,1-3.751-2.979,3.656,3.656,0,0,1,1.35-3.45l9.893-9.806a4.837,4.837,0,0,1,3.406-1.4h4.332a3.677,3.677,0,0,0,3.083-1.674l2.974-4.348A.152.152,0,0,1,214.843,301.615Z" transform="translate(-7368.463 -4119.19)" fill="#ee2219"/>
    <path id="Path_21186" data-name="Path 21186" d="M189.464,297.62V274.561a3.38,3.38,0,0,1,3.38-3.38h18.62a3.379,3.379,0,0,1,3.379,3.379v7.829l-6.745,5.926a.886.886,0,0,0-.3.684l.011.467a.589.589,0,0,0,.617.576l.337-.016a1.274,1.274,0,0,0,.778-.313l5.3-4.62v1.978l-4.8,4.155a2.159,2.159,0,0,1-1.411.526H204.6a2.608,2.608,0,0,0-1.864.784l-13.272,13.553v-3.76l11.572-11.706a3.582,3.582,0,0,0,1.035-2.518v-2.256a2.586,2.586,0,0,1,.938-1.992l4.982-4.121a1.261,1.261,0,0,0,.457-.971h0c.132-1.089-.633-1.433-1.42-1.432a14.188,14.188,0,0,0-9.919,3.946,8.358,8.358,0,0,0-2.473,5.967v3.6a4.115,4.115,0,0,1-1.242,2.946Z" transform="translate(-7368.463 -4110.181)" fill="#21445a"/>
    <path id="Path_21187" data-name="Path 21187" d="M256.879,271.208a4.671,4.671,0,0,1,3.477,1.1,4.511,4.511,0,0,1,1.054,3.246v1.2a4.921,4.921,0,0,1-.738,2.866,3.522,3.522,0,0,1-2.4,1.349l3.6,4.468a.331.331,0,0,1,.063.316q-.042.211-.337.211h-2.719a.8.8,0,0,1-.379-.063.746.746,0,0,1-.211-.211l-3.33-4.384h-6.807V285.5a.41.41,0,0,1-.464.464h-2.276q-.485,0-.485-.464V271.84a.559.559,0,0,1,.632-.632Zm-8.725,7.524h8.072a2.042,2.042,0,0,0,1.517-.464,1.978,1.978,0,0,0,.443-1.412v-.885a1.979,1.979,0,0,0-.443-1.412,2.042,2.042,0,0,0-1.517-.464h-7.8q-.274,0-.274.253Z" transform="translate(-7387.027 -4110.189)" fill="#21445a"/>
    <path id="Path_21188" data-name="Path 21188" d="M286.473,271.208q.485,0,.485.464v2q0,.464-.485.464h-9.209a5.639,5.639,0,0,0-1.36.137,1.833,1.833,0,0,0-.863.464,1.773,1.773,0,0,0-.454.885,6.381,6.381,0,0,0-.126,1.38v.211h11.907a.41.41,0,0,1,.464.464v1.665a.41.41,0,0,1-.464.464H274.461v.358a6.377,6.377,0,0,0,.126,1.38,1.773,1.773,0,0,0,.454.885,1.832,1.832,0,0,0,.863.464,5.638,5.638,0,0,0,1.36.137h9.209q.485,0,.485.464v2q0,.464-.485.464H277.2a10.785,10.785,0,0,1-2.719-.3,4.153,4.153,0,0,1-1.824-.959,3.87,3.87,0,0,1-1.032-1.728,8.856,8.856,0,0,1-.327-2.582v-3.625a8.748,8.748,0,0,1,.327-2.571,3.872,3.872,0,0,1,1.032-1.718,4.238,4.238,0,0,1,1.824-.969,10.46,10.46,0,0,1,2.719-.306Z" transform="translate(-7394.851 -4110.189)" fill="#21445a"/>
    <path id="Path_21189" data-name="Path 21189" d="M308.989,271.208a4.673,4.673,0,0,1,3.477,1.1,4.511,4.511,0,0,1,1.054,3.246v1.56a4.511,4.511,0,0,1-1.054,3.246,4.67,4.67,0,0,1-3.477,1.1h-8.725V285.5a.41.41,0,0,1-.464.464h-2.276q-.485,0-.485-.464V271.84a.559.559,0,0,1,.632-.632Zm-8.725,7.461h8.072a2.043,2.043,0,0,0,1.517-.464,1.977,1.977,0,0,0,.443-1.412v-.8a1.979,1.979,0,0,0-.443-1.412,2.043,2.043,0,0,0-1.517-.464h-7.8q-.274,0-.274.253Z" transform="translate(-7402.486 -4110.189)" fill="#21445a"/>
    <path id="Path_21190" data-name="Path 21190" d="M338.009,271.208a.41.41,0,0,1,.464.464v2a.41.41,0,0,1-.464.464H327.45a1.046,1.046,0,0,0-.864.316,1.346,1.346,0,0,0-.253.864v.717q0,1.18,1.1,1.18h7.9a3.721,3.721,0,0,1,2.761.938,3.661,3.661,0,0,1,.927,2.687v1.686a3.45,3.45,0,0,1-.906,2.487,3.747,3.747,0,0,1-2.824.948H323.615q-.485,0-.485-.464v-2q0-.464.485-.464h11.064a1.046,1.046,0,0,0,.864-.316,1.346,1.346,0,0,0,.253-.864v-.864q0-1.18-1.1-1.18h-7.9a3.721,3.721,0,0,1-2.761-.938,3.661,3.661,0,0,1-.927-2.687v-1.538a3.45,3.45,0,0,1,.906-2.487,3.746,3.746,0,0,1,2.824-.948Z" transform="translate(-7410.22 -4110.189)" fill="#21445a"/>
    <path id="Path_21191" data-name="Path 21191" d="M364.112,271.208q.485,0,.485.464v2q0,.464-.485.464H354.9a5.635,5.635,0,0,0-1.36.137,1.826,1.826,0,0,0-.863.464,1.767,1.767,0,0,0-.454.885A6.372,6.372,0,0,0,352.1,277v.211h11.908a.41.41,0,0,1,.464.464v1.665a.41.41,0,0,1-.464.464H352.1v.358a6.368,6.368,0,0,0,.126,1.38,1.767,1.767,0,0,0,.454.885,1.826,1.826,0,0,0,.863.464,5.634,5.634,0,0,0,1.36.137h9.209q.485,0,.485.464v2q0,.464-.485.464H354.84a10.78,10.78,0,0,1-2.719-.3,4.153,4.153,0,0,1-1.824-.959,3.878,3.878,0,0,1-1.033-1.728,8.881,8.881,0,0,1-.327-2.582v-3.625a8.772,8.772,0,0,1,.327-2.571,3.88,3.88,0,0,1,1.033-1.718,4.239,4.239,0,0,1,1.824-.969,10.456,10.456,0,0,1,2.719-.306Z" transform="translate(-7417.883 -4110.189)" fill="#21445a"/>
    <path id="Path_21192" data-name="Path 21192" d="M401.729,271.208a.568.568,0,0,1,.306.063.618.618,0,0,1,.178.211l6.176,11.338a.247.247,0,0,0,.253.147h.105a.257.257,0,0,0,.231-.147l6.091-11.338a.482.482,0,0,1,.485-.274h2.76c.169,0,.271.046.306.137a.44.44,0,0,1-.053.348l-6.913,12.666a3.426,3.426,0,0,1-1.033,1.286,2.18,2.18,0,0,1-1.18.316H408.22a2.646,2.646,0,0,1-1.359-.316,3.256,3.256,0,0,1-1.064-1.286l-7-12.666a.437.437,0,0,1-.053-.348q.053-.137.327-.137Z" transform="translate(-7432.649 -4110.189)" fill="#21445a"/>
    <g id="Group_7663" data-name="Group 7663" transform="translate(-7142.31 -3811.984)">
      <path id="Path_21193" data-name="Path 21193" d="M248.419,309.638a1.555,1.555,0,0,1,1.159.366,1.5,1.5,0,0,1,.351,1.082v.4a1.639,1.639,0,0,1-.246.956,1.172,1.172,0,0,1-.8.449l1.2,1.489a.11.11,0,0,1,.02.105c-.009.047-.047.07-.112.07h-.906a.271.271,0,0,1-.126-.02.264.264,0,0,1-.07-.07L247.78,313h-2.269v1.4a.136.136,0,0,1-.154.155H244.6c-.108,0-.162-.051-.162-.155v-4.552a.186.186,0,0,1,.21-.211Zm-2.908,2.508H248.2a.686.686,0,0,0,.507-.154.664.664,0,0,0,.148-.471v-.3a.663.663,0,0,0-.148-.471.686.686,0,0,0-.507-.154h-2.6c-.06,0-.091.028-.091.084Z" transform="translate(-244.437 -309.638)" fill="#21445a"/>
      <path id="Path_21194" data-name="Path 21194" d="M261.814,309.638c.108,0,.162.052.162.155v.667c0,.1-.054.155-.162.155h-3.07a1.854,1.854,0,0,0-.453.046.612.612,0,0,0-.288.154.6.6,0,0,0-.151.3,2.117,2.117,0,0,0-.042.459v.071h3.969a.136.136,0,0,1,.155.154v.555a.137.137,0,0,1-.155.155H257.81v.119a2.119,2.119,0,0,0,.042.46.6.6,0,0,0,.151.3.612.612,0,0,0,.288.154,1.852,1.852,0,0,0,.453.046h3.07c.108,0,.162.052.162.155v.667c0,.1-.054.155-.162.155h-3.091a3.576,3.576,0,0,1-.906-.1,1.379,1.379,0,0,1-.608-.32,1.3,1.3,0,0,1-.344-.576,2.966,2.966,0,0,1-.109-.861v-1.208a2.939,2.939,0,0,1,.109-.858,1.3,1.3,0,0,1,.344-.573,1.42,1.42,0,0,1,.608-.322,3.468,3.468,0,0,1,.906-.1Z" transform="translate(-248.102 -309.638)" fill="#21445a"/>
      <path id="Path_21195" data-name="Path 21195" d="M272.85,309.638a1.557,1.557,0,0,1,1.159.366,1.5,1.5,0,0,1,.351,1.082v.519a1.5,1.5,0,0,1-.351,1.082,1.557,1.557,0,0,1-1.159.365h-2.909V314.4a.136.136,0,0,1-.154.155h-.759c-.108,0-.162-.051-.162-.155v-4.552a.186.186,0,0,1,.211-.211Zm-2.909,2.488h2.691a.681.681,0,0,0,.506-.155.661.661,0,0,0,.148-.471v-.266a.662.662,0,0,0-.148-.471.681.681,0,0,0-.506-.155h-2.6c-.06,0-.091.028-.091.084Z" transform="translate(-251.705 -309.638)" fill="#21445a"/>
      <path id="Path_21196" data-name="Path 21196" d="M283.173,309.638a.869.869,0,0,1,.45.109,1.117,1.117,0,0,1,.358.425l2.325,4.223a.142.142,0,0,1,.018.116c-.011.03-.046.045-.1.045h-.892a.161.161,0,0,1-.162-.091l-.5-.906h-3.3l-.485.906a.169.169,0,0,1-.162.091h-.913c-.06,0-.1-.015-.109-.045a.146.146,0,0,1,.018-.116l2.3-4.223a1.186,1.186,0,0,1,.345-.425.708.708,0,0,1,.393-.109Zm-1.362,3.105h2.416l-1.117-2.058a.085.085,0,0,0-.077-.05h-.042a.087.087,0,0,0-.077.05Z" transform="translate(-254.926 -309.638)" fill="#21445a"/>
      <path id="Path_21197" data-name="Path 21197" d="M294.406,309.638a.137.137,0,0,1,.155.155V314.4a.136.136,0,0,1-.155.155h-.759c-.108,0-.162-.051-.162-.155v-4.608c0-.1.053-.155.162-.155Z" transform="translate(-259.029 -309.638)" fill="#21445a"/>
      <path id="Path_21198" data-name="Path 21198" d="M303.859,309.638a1.557,1.557,0,0,1,1.159.366,1.5,1.5,0,0,1,.351,1.082v.4a1.644,1.644,0,0,1-.246.956,1.175,1.175,0,0,1-.8.449l1.2,1.489a.112.112,0,0,1,.021.105c-.009.047-.047.07-.112.07h-.906a.269.269,0,0,1-.126-.02.246.246,0,0,1-.07-.07L303.22,313h-2.269v1.4a.136.136,0,0,1-.154.155h-.759c-.108,0-.162-.051-.162-.155v-4.552a.187.187,0,0,1,.211-.211Zm-2.908,2.508h2.691a.683.683,0,0,0,.506-.154.661.661,0,0,0,.148-.471v-.3a.66.66,0,0,0-.148-.471.683.683,0,0,0-.506-.154h-2.6c-.061,0-.091.028-.091.084Z" transform="translate(-260.93 -309.638)" fill="#21445a"/>
      <path id="Path_21199" data-name="Path 21199" d="M313.377,309.638a.137.137,0,0,1,.154.155V314.4a.136.136,0,0,1-.154.155h-.759c-.109,0-.162-.051-.162-.155v-4.608c0-.1.053-.155.162-.155Z" transform="translate(-264.673 -309.638)" fill="#21445a"/>
      <path id="Path_21200" data-name="Path 21200" d="M320.1,309.638a2.2,2.2,0,0,1,.28.015.551.551,0,0,1,.2.059.677.677,0,0,1,.162.127,2.315,2.315,0,0,1,.176.214l2.613,3.429a.1.1,0,0,0,.091.049h.063c.037,0,.056-.024.056-.071v-3.666a.137.137,0,0,1,.154-.155h.738a.137.137,0,0,1,.155.155v4.032a.816.816,0,0,1-.155.58.663.663,0,0,1-.478.15h-.6a2.1,2.1,0,0,1-.271-.014.592.592,0,0,1-.193-.056.655.655,0,0,1-.165-.122,2.134,2.134,0,0,1-.186-.221l-2.62-3.429a.124.124,0,0,0-.091-.049h-.063c-.038,0-.056.024-.056.071V314.4a.137.137,0,0,1-.155.155h-.738c-.108,0-.162-.051-.162-.155v-4.032a.82.82,0,0,1,.154-.58.664.664,0,0,1,.478-.151Z" transform="translate(-266.574 -309.638)" fill="#21445a"/>
      <path id="Path_21201" data-name="Path 21201" d="M337.6,309.638a.137.137,0,0,1,.155.155v.688c0,.108-.051.162-.155.162h-3.52a1.853,1.853,0,0,0-.453.046.587.587,0,0,0-.285.154.631.631,0,0,0-.151.292,1.94,1.94,0,0,0-.046.464v1.011a1.984,1.984,0,0,0,.046.468.628.628,0,0,0,.151.294.588.588,0,0,0,.285.155,1.888,1.888,0,0,0,.453.046H336.4a.338.338,0,0,0,.267-.1.505.505,0,0,0,.084-.333v-.569c0-.061-.028-.092-.084-.092h-2.058c-.1,0-.155-.053-.155-.162v-.527c0-.107.051-.162.155-.162h2.929a.187.187,0,0,1,.211.211v1.637a1.218,1.218,0,0,1-.225.832.84.84,0,0,1-.646.242h-2.838a3.572,3.572,0,0,1-.906-.1,1.372,1.372,0,0,1-.608-.32,1.292,1.292,0,0,1-.345-.576,2.968,2.968,0,0,1-.108-.861v-1.208a2.941,2.941,0,0,1,.108-.858,1.3,1.3,0,0,1,.345-.573,1.412,1.412,0,0,1,.608-.322,3.464,3.464,0,0,1,.906-.1Z" transform="translate(-270.51 -309.638)" fill="#21445a"/>
      <path id="Path_21202" data-name="Path 21202" d="M356.672,309.638a.137.137,0,0,1,.155.155v.667a.137.137,0,0,1-.155.155h-3.519a.349.349,0,0,0-.289.105.448.448,0,0,0-.084.288v.239q0,.393.366.393h2.634a1.24,1.24,0,0,1,.92.312,1.22,1.22,0,0,1,.31.9v.563a1.151,1.151,0,0,1-.3.828,1.246,1.246,0,0,1-.942.316h-3.892c-.107,0-.161-.051-.161-.155v-.667a.14.14,0,0,1,.161-.155h3.688a.346.346,0,0,0,.288-.105.444.444,0,0,0,.085-.288V312.9c0-.263-.122-.393-.365-.393h-2.634a1.239,1.239,0,0,1-.92-.313,1.22,1.22,0,0,1-.309-.9v-.513a1.147,1.147,0,0,1,.3-.828,1.245,1.245,0,0,1,.941-.317Z" transform="translate(-276.35 -309.638)" fill="#21445a"/>
      <path id="Path_21203" data-name="Path 21203" d="M368.9,309.638a.14.14,0,0,1,.161.155v.667c0,.1-.053.155-.161.155h-3.07a1.854,1.854,0,0,0-.453.046.612.612,0,0,0-.288.154.6.6,0,0,0-.151.3,2.121,2.121,0,0,0-.042.459v.071h3.969a.136.136,0,0,1,.155.154v.555a.137.137,0,0,1-.155.155H364.9v.119a2.123,2.123,0,0,0,.042.46.6.6,0,0,0,.151.3.612.612,0,0,0,.288.154,1.853,1.853,0,0,0,.453.046h3.07c.107,0,.161.052.161.155v.667c0,.1-.053.155-.161.155h-3.091a3.581,3.581,0,0,1-.907-.1,1.373,1.373,0,0,1-.607-.32,1.291,1.291,0,0,1-.344-.576,2.942,2.942,0,0,1-.109-.861v-1.208a2.916,2.916,0,0,1,.109-.858,1.3,1.3,0,0,1,.344-.573,1.413,1.413,0,0,1,.607-.322,3.473,3.473,0,0,1,.907-.1Z" transform="translate(-279.961 -309.638)" fill="#21445a"/>
      <path id="Path_21204" data-name="Path 21204" d="M379.939,309.638A1.553,1.553,0,0,1,381.1,310a1.5,1.5,0,0,1,.351,1.082v.4a1.645,1.645,0,0,1-.245.956,1.176,1.176,0,0,1-.8.449l1.2,1.489a.11.11,0,0,1,.02.105c-.008.047-.046.07-.112.07h-.906a.265.265,0,0,1-.126-.02.246.246,0,0,1-.07-.07L379.3,313h-2.27v1.4a.136.136,0,0,1-.154.155h-.759c-.108,0-.162-.051-.162-.155v-4.552a.187.187,0,0,1,.211-.211Zm-2.909,2.508h2.691a.685.685,0,0,0,.507-.154.661.661,0,0,0,.147-.471v-.3a.66.66,0,0,0-.147-.471.685.685,0,0,0-.507-.154h-2.6c-.06,0-.091.028-.091.084Z" transform="translate(-283.564 -309.638)" fill="#21445a"/>
      <path id="Path_21205" data-name="Path 21205" d="M388.5,309.638a.186.186,0,0,1,.1.021.2.2,0,0,1,.06.07l2.059,3.779a.082.082,0,0,0,.084.05h.035a.084.084,0,0,0,.077-.05l2.031-3.779a.161.161,0,0,1,.161-.091h.921c.056,0,.09.015.1.046a.144.144,0,0,1-.017.116l-2.3,4.223a1.155,1.155,0,0,1-.344.429.729.729,0,0,1-.393.1h-.407a.886.886,0,0,1-.454-.1,1.1,1.1,0,0,1-.355-.429l-2.332-4.223a.143.143,0,0,1-.018-.116c.011-.03.048-.046.109-.046Z" transform="translate(-286.999 -309.638)" fill="#21445a"/>
      <path id="Path_21206" data-name="Path 21206" d="M402.216,309.638a.137.137,0,0,1,.155.155V314.4a.136.136,0,0,1-.155.155h-.759c-.108,0-.161-.051-.161-.155v-4.608c0-.1.053-.155.161-.155Z" transform="translate(-291.103 -309.638)" fill="#21445a"/>
      <path id="Path_21207" data-name="Path 21207" d="M412.741,309.638a.137.137,0,0,1,.155.155v.688c0,.108-.052.162-.155.162h-3.126a1.859,1.859,0,0,0-.454.046.584.584,0,0,0-.284.154.631.631,0,0,0-.152.292,1.983,1.983,0,0,0-.045.464v1a2.018,2.018,0,0,0,.045.467.627.627,0,0,0,.152.3.585.585,0,0,0,.284.155,1.894,1.894,0,0,0,.454.046h3.126a.136.136,0,0,1,.155.154v.688a.137.137,0,0,1-.155.155h-3.169a3.576,3.576,0,0,1-.906-.1,1.373,1.373,0,0,1-.607-.32,1.285,1.285,0,0,1-.344-.576,2.942,2.942,0,0,1-.11-.861v-1.208a2.915,2.915,0,0,1,.11-.858,1.289,1.289,0,0,1,.344-.573,1.413,1.413,0,0,1,.607-.322,3.468,3.468,0,0,1,.906-.1Z" transform="translate(-292.98 -309.638)" fill="#21445a"/>
      <path id="Path_21208" data-name="Path 21208" d="M424.713,309.638c.108,0,.162.052.162.155v.667c0,.1-.053.155-.162.155h-3.07a1.852,1.852,0,0,0-.452.046.609.609,0,0,0-.288.154.591.591,0,0,0-.151.3,2.114,2.114,0,0,0-.043.459v.071h3.97a.136.136,0,0,1,.154.154v.555a.137.137,0,0,1-.154.155h-3.97v.119a2.117,2.117,0,0,0,.043.46.591.591,0,0,0,.151.3.609.609,0,0,0,.288.154,1.851,1.851,0,0,0,.452.046h3.07c.108,0,.162.052.162.155v.667c0,.1-.053.155-.162.155h-3.091a3.575,3.575,0,0,1-.906-.1,1.369,1.369,0,0,1-.607-.32,1.285,1.285,0,0,1-.344-.576,2.941,2.941,0,0,1-.11-.861v-1.208a2.914,2.914,0,0,1,.11-.858,1.288,1.288,0,0,1,.344-.573,1.41,1.41,0,0,1,.607-.322,3.467,3.467,0,0,1,.906-.1Z" transform="translate(-296.564 -309.638)" fill="#21445a"/>
    </g>
    <g id="Group_7664" data-name="Group 7664" transform="translate(-7093.572 -3797.73)">
      <path id="Path_21209" data-name="Path 21209" d="M317.383,329.928a.1.1,0,0,1,.108.108v.467a.1.1,0,0,1-.108.108h-2.464a.242.242,0,0,0-.2.074.31.31,0,0,0-.059.2v.167q0,.275.255.275h1.844a.867.867,0,0,1,.644.219.854.854,0,0,1,.216.627v.393a.8.8,0,0,1-.211.58.874.874,0,0,1-.659.221h-2.724c-.075,0-.113-.036-.113-.108v-.467c0-.072.038-.108.113-.108h2.582a.244.244,0,0,0,.2-.074.315.315,0,0,0,.059-.2v-.2q0-.275-.256-.275h-1.844a.87.87,0,0,1-.644-.218.856.856,0,0,1-.216-.627v-.359a.806.806,0,0,1,.211-.58.875.875,0,0,1,.66-.221Z" transform="translate(-313.906 -329.928)" fill="#ee2219"/>
      <path id="Path_21210" data-name="Path 21210" d="M320.591,329.928a.1.1,0,0,1,.109.108v3.226a.1.1,0,0,1-.109.108h-.531c-.075,0-.113-.036-.113-.108v-3.226c0-.072.038-.108.113-.108Z" transform="translate(-315.703 -329.928)" fill="#ee2219"/>
      <path id="Path_21211" data-name="Path 21211" d="M322.782,329.928a1.692,1.692,0,0,1,.2.01.4.4,0,0,1,.138.041.482.482,0,0,1,.113.089,1.565,1.565,0,0,1,.123.15l1.829,2.4a.068.068,0,0,0,.064.034h.044c.027,0,.039-.016.039-.049v-2.567a.1.1,0,0,1,.108-.108h.516a.1.1,0,0,1,.108.108v2.823a.571.571,0,0,1-.108.406.465.465,0,0,1-.334.105H325.2a1.434,1.434,0,0,1-.19-.01.414.414,0,0,1-.135-.039.462.462,0,0,1-.115-.086,1.512,1.512,0,0,1-.131-.155l-1.834-2.4a.084.084,0,0,0-.064-.034h-.044c-.026,0-.039.017-.039.049v2.567a.1.1,0,0,1-.108.108h-.516c-.075,0-.113-.036-.113-.108v-2.823a.564.564,0,0,1,.109-.405.457.457,0,0,1,.334-.106Z" transform="translate(-316.286 -329.928)" fill="#ee2219"/>
      <path id="Path_21212" data-name="Path 21212" d="M332.249,329.928a.1.1,0,0,1,.109.108v.482a.1.1,0,0,1-.109.113h-2.188a1.331,1.331,0,0,0-.318.032.416.416,0,0,0-.2.108.45.45,0,0,0-.106.2,1.383,1.383,0,0,0-.032.325v.7a1.422,1.422,0,0,0,.032.327.451.451,0,0,0,.106.207.409.409,0,0,0,.2.107,1.292,1.292,0,0,0,.318.032h2.188a.1.1,0,0,1,.109.108v.482a.1.1,0,0,1-.109.108h-2.217a2.528,2.528,0,0,1-.634-.069.979.979,0,0,1-.426-.223.9.9,0,0,1-.24-.4,2.026,2.026,0,0,1-.077-.6v-.846a2.008,2.008,0,0,1,.077-.6.907.907,0,0,1,.24-.4A.989.989,0,0,1,329.4,330a2.421,2.421,0,0,1,.634-.072Z" transform="translate(-318.294 -329.928)" fill="#ee2219"/>
      <path id="Path_21213" data-name="Path 21213" d="M338.118,329.928c.076,0,.113.036.113.108v.467c0,.072-.037.108-.113.108h-2.148a1.3,1.3,0,0,0-.318.032.428.428,0,0,0-.2.107.419.419,0,0,0-.105.207,1.537,1.537,0,0,0-.029.322v.049h2.778a.1.1,0,0,1,.108.108v.388a.1.1,0,0,1-.108.108h-2.778v.084a1.537,1.537,0,0,0,.029.322.42.42,0,0,0,.105.207.428.428,0,0,0,.2.107,1.3,1.3,0,0,0,.318.032h2.148c.076,0,.113.037.113.108v.467c0,.072-.037.108-.113.108h-2.164a2.536,2.536,0,0,1-.634-.069.979.979,0,0,1-.426-.223.905.905,0,0,1-.24-.4,2.051,2.051,0,0,1-.077-.6v-.846a2.033,2.033,0,0,1,.077-.6.907.907,0,0,1,.24-.4.99.99,0,0,1,.426-.225,2.429,2.429,0,0,1,.634-.072Z" transform="translate(-320.056 -329.928)" fill="#ee2219"/>
      <path id="Path_21214" data-name="Path 21214" d="M343.31,329.928a.491.491,0,0,1,.349.1.428.428,0,0,1,.1.317v2.916a.1.1,0,0,1-.108.108h-.507a.1.1,0,0,1-.107-.108v-2.577a.092.092,0,0,0-.1-.1h-.281c-.075,0-.112-.036-.112-.108v-.438c0-.072.037-.108.112-.108Z" transform="translate(-322.426 -329.928)" fill="#ee2219"/>
      <path id="Path_21215" data-name="Path 21215" d="M347.427,329.928a2.415,2.415,0,0,1,.634.072.981.981,0,0,1,.426.225.909.909,0,0,1,.242.4,2.058,2.058,0,0,1,.076.6v.846a2.076,2.076,0,0,1-.076.6.907.907,0,0,1-.242.4.971.971,0,0,1-.426.223,2.522,2.522,0,0,1-.634.069h-2.11a.1.1,0,0,1-.108-.108v-.438a.1.1,0,0,1,.108-.108h2.11a1.286,1.286,0,0,0,.317-.032.406.406,0,0,0,.2-.107.424.424,0,0,0,.1-.207,1.52,1.52,0,0,0,.029-.327v-.108H346q-.9,0-.9-.8v-.325a.881.881,0,0,1,.228-.666,1,1,0,0,1,.711-.219Zm-1.618,1.151a.37.37,0,0,0,.064.233.266.266,0,0,0,.221.081h1.982v-.162a1.482,1.482,0,0,0-.029-.322.418.418,0,0,0-.1-.207.408.408,0,0,0-.2-.109,1.323,1.323,0,0,0-.317-.032h-1.333a.288.288,0,0,0-.219.072.321.321,0,0,0-.066.223Z" transform="translate(-323.184 -329.928)" fill="#ee2219"/>
      <path id="Path_21216" data-name="Path 21216" d="M354.238,329.928a.311.311,0,0,1,.236.084.3.3,0,0,1,.079.216v.339a.612.612,0,0,1-.041.248.876.876,0,0,1-.15.209l-2.095,2.252a.315.315,0,0,1-.091.074.286.286,0,0,1-.12.02h-.688a.067.067,0,0,1-.074-.046.085.085,0,0,1,.02-.086l2.419-2.547a.371.371,0,0,0,.029-.041.089.089,0,0,0,.01-.042v-.025c0-.022-.015-.034-.045-.034h-2.851c-.076,0-.113-.036-.113-.108v-.4c0-.072.037-.108.113-.108Z" transform="translate(-324.87 -329.928)" fill="#ee2219"/>
      <path id="Path_21217" data-name="Path 21217" d="M357.288,329.928a.488.488,0,0,1,.349.1.423.423,0,0,1,.1.317v2.916a.1.1,0,0,1-.108.108h-.506a.1.1,0,0,1-.108-.108v-2.577a.091.091,0,0,0-.1-.1h-.28c-.076,0-.114-.036-.114-.108v-.438c0-.072.038-.108.114-.108Z" transform="translate(-326.584 -329.928)" fill="#ee2219"/>
    </g>
    <rect id="Rectangle_34" data-name="Rectangle 34" width="0.702" height="43.664" transform="translate(-7057.675 -3795.662) rotate(-90)" fill="#ee2219"/>
    <rect id="Rectangle_35" data-name="Rectangle 35" width="0.702" height="43.664" transform="translate(-7142.435 -3795.662) rotate(-90)" fill="#ee2219"/>
    <path id="Path_21218" data-name="Path 21218" d="M388.952,285.578h-.015l.814,1.052Z" transform="translate(-7429.736 -4114.464)" fill="none"/>
    <path id="Path_21219" data-name="Path 21219" d="M392.557,285.434l-3.6-4.468a3.526,3.526,0,0,0,2.4-1.349,4.926,4.926,0,0,0,.738-2.866v-1.2a4.511,4.511,0,0,0-1.054-3.246,4.674,4.674,0,0,0-3.478-1.1h-9.745l2.234,2.887h6.858a2.044,2.044,0,0,1,1.517.464,1.979,1.979,0,0,1,.443,1.412v.885a1.978,1.978,0,0,1-.443,1.412,2.044,2.044,0,0,1-1.517.464h-3.27l1.99,2.571h.015l.8,1.052,2.742,3.543a.8.8,0,0,0,.379.063h2.719c.2,0,.31-.07.338-.211A.333.333,0,0,0,392.557,285.434Z" transform="translate(-7426.427 -4110.189)" fill="#ee2219"/>
    <path id="Path_21220" data-name="Path 21220" d="M392.626,290.407a.745.745,0,0,0,.211.211l-2.742-3.543Z" transform="translate(-7430.081 -4114.91)"/>
    <path id="Path_21221" data-name="Path 21221" d="M377.816,290.571c0,.309.161.464.485.464h2.275a.41.41,0,0,0,.464-.464v-3.5h-3.224Z" transform="translate(-7426.462 -4114.91)" fill="#21445a"/>
  </g>
</svg>
